<mxfile host="Electron" agent="Mozilla/5.0 (Windows NT 10.0; Win64; x64) AppleWebKit/537.36 (KHTML, like Gecko) draw.io/27.0.9 Chrome/134.0.6998.205 Electron/35.4.0 Safari/537.36" version="27.0.9">
  <diagram name="PÃ¡gina-1" id="IKVGy_DopQR0RWY-qbrC">
    <mxGraphModel dx="946" dy="1830" grid="1" gridSize="10" guides="1" tooltips="1" connect="1" arrows="1" fold="1" page="1" pageScale="1" pageWidth="827" pageHeight="1169" math="0" shadow="0">
      <root>
        <mxCell id="0" />
        <mxCell id="1" parent="0" />
        <mxCell id="fucy-kLUyC3A65yk6uyo-1" value="" style="shape=image;verticalLabelPosition=bottom;labelBackgroundColor=default;verticalAlign=top;aspect=fixed;imageAspect=0;image=data:image/png,iVBORw0KGgoAAAANSUhEUgAAAh0AAADiCAYAAADqO3UCAAAAAXNSR0IArs4c6QAAAARnQU1BAACxjwv8YQUAAAAJcEhZcwAADsMAAA7DAcdvqGQAAMwJSURBVHhe7J13XFPX+8c/CWG7N+ACB8rSito669aqddTWWlux4vrqt7Xtr6211qqtfm3dOMCN1gluQdEqblCWC1FRpjgYyhCEQJKb5/dHEJKbc0lQRGzv+/XqHzX33vOc5zzn3ENyk7eEiAgiIiIiIiIiIq8ZKf8fREREREREREReB+KmQ0RERERERKRSEDcdIiIiIiIiIpWCuOkQERERERERqRTETYeIiIiIiIhIpWDy85RR8yNuxOF+SgpSdP57iOcWtqhvLQXU2bgReAg3JS3Qoq4p/xrlRp11DUcO34FZa3vUlvFf1WDMMfoUIPHCIRw5FwdVo5awrcbfUxUhPfocTl5Kg3WLJqhpwnu5GPWzRFy5cguJKSlIefgMpg0boroJgOf3cS0yBgkpD5FvYYf61hL+qa+F/KQz2LbtCqw7OaEev0tVkYIEhBy/itz6zdHAsqwcqZEVsgErL1mhi0t9FCQEY+vmMJi964qGb0M/RURERETKhdTctjVsri/ABz17ot/cc1DLpOCy7+DQnM/w87HnAAD1ox34bvQ4jJ57jH/+S8AhbuN0jP5iDH47Uch/sRhjjuGhzsaZmT3Qoe9n8PzyI3TtOAZ/JXMlL+fHbMd/+7yP/xzMh1O/99DUTOdsHaSWNSG7tQpj+3yCNXE1UPPFpseiBtTBc/DVX49galX+u6I6OxPZav6/GkCdipgAbyxaexaPS7tTobxUXGWQH/wHvt+TCuuaRuRIIoFUKgHUGUi4uAsrvE4iWcU/SERERETkn4AUMIdN44YwlwCSms3R8b334NR5BBZvm41elsUHNZmIjX8HIGjpcP75L4EJHP+7FScCjuKPIRb8F4sx5hhd1GkhSHhnJx4+T8S+CS1AjwOwcW8yOACqO+swuv8M3Oi3AX7zh6NNdQM3Q7O6aD/xN0xzL0B8Ug7MXhwuM0OW3BXf/T4KLavxzjGEOgOB85fijJF7qBKkNug4qBMaC7wr88q8bFyCqJCo7AfvTeNgbzBmKep0m4pZo9tCJm0A1z7tYWdgaERERERE3l5M5s+fP18Vewgr9kZD6TgSP30sg9+OO3Ab8BE6t7KGTKbCg7Nb4HskCneLmqBvu4YA8hC9eyU2Hz+NoPO5aNG5FSS3dmHpkq0ITLBCs6fb8f3sY6BufeGovortSzbgwMFt2H3NAu3dTXF58xYEXUuAqlkPuDaQQp1zxcAxQEbIOsxfGYDwkFO4wrVGpxY1dR5IkVR3hLtrfZjJasFBcg0b9sbDcexPGOuWg7+mfAKvh0OxYvs0uJbsYdRIP/E7psw+BurUF061eHc7aV20NovCn6vuoMOkoWhhBiDzMLxD22L6SEeYA0BBIoJ3bsHOI6F4ZN0aznamSI/cj22hKjTJP4U1G04go2EHONXNwcWlHvBceQMKmRLmjTuiUWogtu4KQvC568i3dUVLvc+QOKSH+WHb3pOISIzHlQgT9J8+BPYyoCAxGDu37MSR0Eewbu0MO97HPHm3j+heu+YTROz0xqqDD2DXwwmKy75YteYkclu1RMam8Tpxtaqejst+O7Av6DSuZtdFW8f6MIcC6VcOwfd8ARwoFOt8DuGelTNczGLg57MRgfdrw821ESwAqFLDcTbqDq5fvIrsum3hWPcZwrcuxYodZ5Fk5YgOzaRIOOqDNcfz0KKTHXLD/LEzwgQdnBpAkhuO7VvS8N6MEXBk9pOQGXUI/idCEXU1GtnVXOBQV9yliIiIiLw1EBHJD42julIJmbb3oLmTu5HThCMkp1K49HU0wExKtcfuJyIVxa/7gBo6z6QweSIt61GD3OddJZIfpC/qSEnWahDN+OZz6uzQmxbfSKCtI2yoxX/PUFbAl9RIZkOeR59T/JJuZCptSBMC5ETcfYPHqGK9qE+tmjRyRzYVXvyOWlu50I8X87Ui1EZF8Uu7k5XDVArKIeIer6OBVhIyd59KXnM/onecP6DZQY+IoyIK/aENmZrYkOdR7d5q8TyYpreoRyO2phJHHCWvn0HzLxdpXlMl0NZvZ9Ghh0qSx66iATbuNDf4Ku2Z5EzV3T3oT59dtP2nntSo5zKKUxFRji8NrT+a/POJSH6MJrYYSpsyOMrYMYoaD/Cmh5x2wxw9PfY1DZ5ygB6plJS4YSg1sJ9OpwuJVAlb6dtZh+ihUk6xqwaQjfs8ilRqnSpwbS5pBfVq4klH5USkjKCf27vRzLAi3bi4R+TvOYx+vphDXGEsbRjuSD0XRVF+VgwdmN6erDpPo007D9ORFSOpWbMPafYaXzp4YDF92LQdzY5UEvfInzyH/UwXczgqjN1Awx170qIoOXFP99MXTd1p7nVNoE/3/U5LwuTEpV+jLeNak814Tb1xKV7U2248HZEL9PPpPvL8fD2lchylHZpNC08VanVcRERERKSqo/Nnokmz9zF+bC+04D38J5VIIHnxT1wC9m8PRhb3AGc2HcKdIgkSQi8AkEJqAkjMO2Dcsp0ITziD760PYkvQUzRs2gQ1Bs6H367N+L+eljCRmaDkckl7DRyjwm2/HbiYVwe2dpaQ2dqigfIO9uy4iKKSCLXIv4R1fgWYsmERBtYEVAn3kKSQoJrTIEz9dQ6GyoKx+D8LcKbIDF3/CEFs7FV4C32EY/0+pn1pj7MbtiK28Bb8b9vj006ah0G4u3vgG5WPrDN7sC/CAv0m9oetZUsM6tIcFi2G4OtpYzF2/EDYpyXjIf8ZBbN3MGntHPR6egrHbuUBWU+Qpf1MBRcP38UnYT9mCGxNZGjaqztayQCAw909vojKz8KZPfsQYdEPE/vbQCHXOlfo2qYymJQMqylkjI8+VLc3Y3lIUwzoVBNSc0eMn9EXD7x9cMbSGYO62sPcpgvGfj4cwyaPQPt8M7h4TsDIjyZgqFM6klMKcXvzcoQ0HYBONaUwdxyPGX0fwNsnGIq6H+Krz5Tw3xKCQu4+AuPt8HFHC0gbuGFQ56aMr1AJ9FNhAcnlxfCYuRXx7t9jxnvm/BNFRERERKowuuu9xAyNen6D/wyoAQmAvFvRSOQ/vMhl4mk2ARat8MG0/8Pm8Bxkn/qm5GVJQ9uSz+W5Jxl4qiZkPH4MzqwZ3h89GM7VSy9l3DFqZGflgCSmMDN9cddUIycrG/zQgGc4v3AJ0v+7G4v71YE8Ix35ltawkBBUCgXUspZwaCKFOv0+kvMByOrCoaXmYwE2MjhNnIb347ZitddupHX4FK2Lb9ZcdhayuEboMnYcxo2bgh8XLMSkd6tDUrI7A2BqAhNSQ+8ZTbUcKSd9sC6iHgYOcUMtEHQEOKpExCWpSjd6UhRvwDhkZ2WBa9QFY8eNw7gpP2LBwkl4Vztfhq5dBlzqY6QXyPFiDyNr3ASN5Ll4zmke+CyNxwTSkm7KIJUSSK1E6uN0FMhLzkbjJo0gz30ODmboOPlL2Aasx4GQQGS0Gl7yvIdEIinZgJYi0E+boVj9txd6PFyLEe36Ys65dP6JIiIiIiJVGM32oMT5RiBpfQwe/j7M86OwZtM5KHUOByBrAafWVuDuBCHglgKAAvE3Y0tf1/LHmbVuD5caaiQH7UVIHgD1MzzJ1H1/wvAxZnDu3B41kI/8fAI9f44CmMPVvZ3muYoS1Hh84Ft8HSRFtRvrMHPGBHwy72+oXPqjj70JCu4n4AEHSKQSyBxc4VJNjfQT8zF29I/Yr/UtFz5Sm08wbZQCf617gt4f2ZTs0szadIJzoje+W3YBaUUKPA5eg80h+RC8w0slkHBKKNV5yDi9Br+dtsHoz9xhlfcMhURQyAtR8oaIrA1cWz3FSf+zyFQDUCihVChQBDO06eSMRO/vsOxCGooUjxG8ZjNC8kubUYR7M6+ttrSChTwLmQUAlx6HpOxCKBS6cclb9kY3uoigUM23llRp6eB6DUHP4geKy1YDmqND326gi0HQnK5CWjqHXkN6whKAif0XmPxuKObMz0bnD+pqncfaFAn080EgDt3pjl/9IhE2vz4O+4XwTxQRERERqcKY/Dx15PxjOzZhT0QquCKC1CQLN0/vxcofZ2KH2SeYP9oFZoXXsGvFUTxy+gQ/fdwJji1NEHZ4D3buOYkbt++CnAai1bOj8F5/Dg/V9dBh6EC41DEFLB3hUisGgXv3wC/oGuISc1C3bSPE+/vgQHQmLFt9AM/BfQwe89V/PkDdOwcREF8dtZIC8LfZRKxbPhJNtXYdiltrMPrjJbicFIuo8HCER9yCRf+f8O3A99CprQKhOwKRUJPDnTM5GLR0FTwczRC9/r/4yTcSln3+i+GOQr8/YobmTZ/jnmwUvv+gCUo+lbBqi/faZCJg8UzM+t9fuFpvHH4aKcGpzT7Yd1MCt56tkH9qBzYfS0L1rn3Rt0UN3P97NTadLEKbwZ3BHVkMr8BYPKsmQ/r5SOS27Yt+jrU1mxppLbTr2BA318/GQv8o3H/6CIlxObBq0RmDRwxGm8wALJ45C//76yrqjfsJXzpVL3m3QGKpwN0df+pf27UFEOOFX5YG4Q5ngxppV/HI1Amdu9rjWbAmLsfBkzG+y1Ps+GMDwu8nIyLGGp/P+y/cZfcQsNEHe69xaNPDBQjdhU37bkDt3B1tFWexY+NB3JK548OpE9A9Zwf+2BCO+8kRiLH+HPP+645aEgASa7So9whRsk/xXd+GkAJQZ0Vj7/p1OBxrjk59XFF0egvWHYqFhXsfjByu30+PJtfwxxQvXC/KR/oTCdw/nYCuzYTfpxIRERERqVpIiIh0PhL4F0FFGUhI5mDXuqyPWEREREREREQqgn/3pqPszwtEREREREREKhAJlXnnVePJ+VVYHPgIZN4O438eB7fy/iiWiIiIiIiIiIjhTYeIiIiIiIiISMWg/xMJIiIiIiIiIiKvAXHTISIiIiIiIlIpiJsOERERERERkUpB3HSIiIiIiIiIVAripkNERERERESkUhA3HSIiIiIiIiKVgrjpEBEREREREakUxE2HiIiIiIiISKUgbjpEREREREREKgVx0yEiIiIiIiJSKYibDhEREREREZFKQdx0iIiIiIiIiFQK4qZDREREREREpFIQNx0iIiIiIiIilYK46RARERERERGpFEzmz58/HwBUWYmIvvUAhZZ1Ub3oGfLMLGEh4R9ugPwknNm2DVesO8GpXmXuZ/KRdGYbtl2xRienekBWCDasvASrLi6oX84wFAWFIFMZpFBBpZJCWs7zXxcFD24g4mY8UlJSkPLgAR6mZUNhVht1rGVGvY6CB7gRcRPxL15/nIGcQhNUq1UNZsXjrH2NBw8e4nFGDgpNqqFWNTOUtxReL8+RELwVm8PM8K5rQ3HnbCTqV5gXL8XzBARv3Ywws3fh2tCYBtXICtmAlZes0MWlvoFxVSMnJgg7t/yFgzeAlu0dUNOEf8zrhh1vQUIIjl/NRf3mDWD5RidOxcyT/KQz2LbtCqw7OaFSl3URBrr3OoPDoX1PrpODkA0rccmqC1xeegEoZ/sMpACHpD1TMXLGdkTdjcLeuSPR6f1fcFHBP9QQaqTGBMB70VqcfczxX3ytqFNjEOC9CGvPPoamZQkkUmm5b5TPzi/B+P4uaN19KpZvXI09UeVOwmvDor4tTE99j/5jvHC1QA1l5k3smt4dHcduQHSh4ddhUR+2pqfwff9PsPBEHB6m3MH5v75Hf5dOGLsiFJlqrWt8shAn4h4i5c55/PV9f7h0GosVoZlQ84N6Q6gzEnBx1wp4nUyGiv+iiC7qbGRmvxi5l5sXL4caGQkXsWuFF04ml2OUJBJIpYYj5OLXY7p3AUZ9NRzWR+dh7eU3NFf14s1H8B/fY0+qNWq+zIpcgVTIPFGnIibAG4vWnkUlL+siDPTvdWWhf0+WSKQwYnoJUr72BaCiMJrZrjv9EasiDdl0dPY8OiYv/t/yoIqlP7q1oumnC/mvvGZUFPtHN2o1/TS9fMscZdxPoedcDt064k0rtoZSKsc/5s2Sv28M1W3zA4UWvfiHEzSlaS360DeDOCNep/x9NKZuG/qh5ACi/GuLqXedBvThpkRSsa5B+XRtcW+q0+BD2pT4okbeNBzd9+pNduOP0MuU6b8HjtIPz6Cf9ufzX6gcuPvk1duOxh+p6FHi6L5XH3L+7iKVVnIVQRlN+/dEUh7/398IFTNPVLF/ULdW06nSl3URBuW811X4Pbmc7TMwmT//x/k3/BZi7Vk1XHu+B4ea1mje3AbmdeuhthRAQSKCd27BziOheGTdGs521np/KXHpYfDbthcnIxIRfyUCJv2nY4i9jHkuZUbhkP8JhEZdRXR2NbR3qMs8TpJ3G0e27kJQ8Dlcz7eFa8vaKP6gQLthhPltw96TEUiMv4IIk/6YPsQeqgeX4L8zAiYdnNAAmYg65I8ToVG4Gp2Nai4OqCstQGLwTmzZeQShj6zR2tkO1sp03D51CBFcK1ilhCE6zRwt3J1Q3xTIu30EW3cFIfjcdeTbuqJlbTXSIg9g68VcWMf5YcuNmujh0qA4KDVSI3bCe9VBPLDrASfFZfiuWoOTuY7oYl+IK/u3IVTVBPmn1mDDiQw07CDUhl5vobx9ECvP1sBn0wagiQmAwls4uPoQCnp9jc86WENl4HWJ8jYOrjyLGp9Nw4AmmveiTRu9A7v7G7FgvxpDJvdB/VjeNWCKRu/Y4f7GBdivHoLJfWy13lIrxINL/vC/JkW1+D1YszsCBbauaF3XFGCMnzotEge2XkSudRz8ttxAzU7N8PTYVuwKCsa56/mwdW0J/W7n4fYR/jGE3PDt2JL2HmaMsEfmlUPwPV8ABwrFOp9DuGflDBezGPj5bETg/dpwc20ECwjlmEN6+EHsDTyBMzEqNHdthupSoCAxGDu37MSR0Eewbu0MO9N0RAqMnXF9dUEDGQCokXZhHf702oOQ1Fpo064xTJOPYfXyw3hq/y4ca+v+eaxIOY99AZcRFXYNaRIZFIVA9drWUPDjsyZkRh2C/4lQRF2NRnY1J1S/vRwenitxQyGD0rwxXCzuYN+LeSEFVKmX4bdjH4JOX0V23bZwrG8OKNIE+6mfv7LmAQDKRfj2LUh7bwZGOMqYedIdbk097YwwQQenWsiI3I9toSo0yT+FNRtOIKNhBzjVl+LB6Y1Y/VcAIh6poMoFbDu2Qo10/b4oeGNg1bQIodvPo8CBELrOB4fuWcHZxQwxfj7YGHgftd1c0UhTKMw4ufRwHNwbiBNnYqBq7opm1RVa8TaAFCqkhp9F1J3ruHg1G3XbOqK+uQJpzH6Y6vQcYK21psgwprYLH+CSvz+uSashfs8a7I4ogK1ra9Q11Z4njpCBUdfWEsa4Fs+LMD9s23sSEYnxuBJhgv7Th8Bezs5NKWWsCVAh9bIfduwLwmmd/AjV0OtbSys815SGyANbcTHXGnF+W3CjZie4VEvRu6+x7n9GxStwr5OBcS+TCNyTbVJxyX8nIkw6wKmBFODSEX5wLwJPnEGMqjlcm1WHVKD2hdqXGxM7HyIi+a1t5NmuFpnWbEMjft1Ht15s01UJtPXbWXTooZLksatogI07zYtU6uxauKfH6OvBU+jAIxUpEzfQ0Ab2ml0V89yntM/zc1qfyhGXdohmLzwlcFweHZvYgoZuyiAuYweNajyAvB/y3nbgntKxrwfTlAOPSKVMpA1DG5D99NNUyKXTtS3jqLXNeDoiJ8rZ50mfr08ljkujQ7MX0qlCFSVs/ZZmHXpISnksrRpgQ+7zwikzeg9Ncq5O7h5/ks+u7fRTz0bUc1kcqeTHaGKLobQpg6OMHaOo8QBvSnlyk/ZOdSPrdh60YsWvNH1BEC+2JFrRqwl5HpUTkZIifm5PbjMvUWo52uB3l4gof99nVKdhb/pm2SryWjqXJvdypHafb6Lo4j9kDb1O+fvoM947HURETzcOInPL4bQ9T3MN3Xc6iIie0sZB5mQ5fLvOX3BcaiT5jHGght0n0tzFq2jBZy5Us/E42p+Rrz9+KU/o5t6p5GbdjjxWrKBfpy+gw7s9qcXQTZTBZdCOUY1pgPdDzTsyWsiPTWQcw1FK8V9w+VkxdGB6e7LqPI027TxMR1aMpGbNPqTZa3zp4IHF9GHTdjQ7UknEzLGKkrZPpgmrYyife0TrBtWj7ktiSZWwlb6ddYgeKuUUu2oA2bjPpeCrAmNHcqP6GpSh1TNVAnkPbES9vZI1/c30o/+beYxytfpNREQ5QTSt0xjamcGRPHwWudV6j6ZvDaWHcfz45lHk033k+fl6SuU4Sjs0mxaeKiSiHPIdWp9G++cT8eYF98ifPIf9TBdzOCqM3UDDHXvSoqj8Cp4HKVrvdDDyxCtyLv0abRnXmmzGH6H8zGjaM8mZqrt70J8+u2j7Tz2pUc9lFKciIlLSjXkdyeWHUCoigb5EPNIdg2mzaZ3vNGpv1ZmmbdpJh4+soJHNmtGHs9eQ78EDtPjDptRudiQpBeJUJW2nyRNWU0w+R4/WDaJ63ZfQ7cel8cqJo0f+njTs54uUwxVS7Ibh5NhzEUU8KqsfWjDWwbmnrxtR20WUGulDYxwaUveJc2nxqgX0mUtNajxuP2VwpfNETsSo63kUmac/rg85jp4e+5oGTzlAj1RKStwwlBrYT6fThezcaCO8JigF8mOohl7DWlrhud5Ld2/spalu1tTOYwWt+HU6LQiM0GuDef8zJl6hex2x7mWRAvfkAkq/toXGtbbRzEdVEm2fPIFWx+QT92gdDarXnZbEPmePr1D7xsTOQAoAFk7jsSUiBqd+74a0TZ/j3S5fITBdDe7uHvhG5SPrzB7si7BAv4n9YaOQa21ZOMT7LsZJ+zEYYmsCWdNe6N5Ks9Nhn6uAheQyFnvMxNZ4d3w/4z2B4zi8M2kt5vR6ilPHbiEPWXiSpftEARfvi8Un7TFmiC1MZE3Rq3srzY5M2gBugzqjafEfjCYWElxe7IGZW+Ph/v0MvCe7iz2+UcjPOoM9+yJg0W8i+tuoUMd1ELo0t0CLIV9j2tixGD/QHmnJD6EyeweT1s5Br6encOxWHpD1BDm1XDC4qz3MHPpj8ne/w3vOBzqxAaaQmZS+H2QqMwEgLVcbvO6WIKnphEFffIExo4Zh6AcukAf7YN2JRyXPWxh6XR81lEoVYG4BC6HPoNVKaA6x0HlwSNroHQzoYIfqrmMwe+YMzPFdhS/MgrD/vFp//HJqwWVwV9ibOaD/5O/wu/ccfNhrMtbO6YWnp45B0+0svTjN3plU5jHS2s4Y1NUe5jZdMPbz4Rg2eQTa55vBxXMCRn40AUOd0pGcogJYOVbEYOuaeDgPbQMrqS0mbQ/Hjon2uLvHF1H5WTizZx8iLPphYn9bWLYUGDuYGdXXD7Qf3DJxwJezPkGq7zpEFKnx6HAkao3sh+pa/QIAVXwoLj+rD7saUli4dYabpQmade+IZ/78+GygUFhAcnkxPGZuRbz795jxnrnuxXTmhQq3Ny9HSNMB6FRTCnPH8ZjR9wG8fc7Aqhw1angeaMPIE6/IpQ3cMKhzU0gBSOu4YlCX5rBoMQRfTxuLseMHwj4tGQ/1Hk4Q6Mv6q2ipPQY+/8N/Pu0Ge3MbdBn7OYYPm4wR7fNh5uKJCSM/woShTkhPTmGPZ5YCMVvXIN55KNpYSWE7aTvCd0xEa5vSeKG6jc3LQ9B0QCfUlJrDcfwM9H3gjfVXWxnVD9Y6aGvhYERtq9HonQHoYFcdrmNmY+aMOfBd9QXMgvbjfKFOC4y6toGC0x/XLGU8fBefhP2YIbA1kaFpr+7QLOus3PDGUGhNOHNNID8tDdRQxa+lFZ/rg4huORhd7c3g0H8yvvvdGz87nNRrg3X/Y65L/HiF7nUc614mF7gnS9HAbRA6F98YVTFbsSbeGUPbWEFqOwnbw3dgYktL5vgKtm9E7Cyk4JJx+fJ9cGZ2eH/GZoRc3YdPi7Zh+e4UcNlZyOIaocvYcRg3bgp+XLAQk97VXhpVSIxLgkryoiikePHZC/tcGwxd/Te8ejzE2hHt0HfOOYHjrCFPOQmfdRGoN3AI3GoBRFrNAlAlxiFJJSn5qEfn8TiJBC9CqjZ0Nf726oGHa0egXd85OPc4E1lZHBp1GYtx48Zhyo8LsHDSu5qH7LQuYWpiAlKrAbUcKSd9sC6iHgYOcUMtEAiARCLRPJRTeooRlK8NJlJL1KhdBw3t3TFs5ib82jUJW5buQPyLp3oMva5HLi6F3YJ5p55414L/WjG5lxB2yxyder4L9iHFnTJrgzb2AKdSs8dPIoFEIin5RpBanoKTPusQUW8ghrAG2chjtMcbUhOtB6VkkEpJOMdcJp5mPUFGhiY5svrNUQs5yM7KAteoC8aOG4dxU37EgoWT8G51gbGDcX3lY9VjBqbU9ceKvWHYd8cOH3cy4x8CmcswjGoUib0nU5AaHoZ0908xpDnY8dkMxeq/vdDj4VqMaNcXc86l8y+nlScOqY/TUSB/8QeEDI2bNII89zm4ctao8fNAIE88JJLSOS3RDQQmpNbblJbZF70x0Py/BilMtJ6ok0mlIFJDzYyTQ+bTLDzJyNA8PCerj+a1gDy1VrxcKh6nF6A0jMZo0kiO3OecUf1gr4PVjavtF5RMwzawB8d7eJRj1401Y1xViYhLUmm1++LSrNzoNKJFSTCaNUGRVmZ+jKshbcpXp9q8nlxraktSXGzsNvTvf8bEK3iv47IZ9zJ3wXuydv1zmU+R9SQDmqVPhvrNawF5Kub4CrZvROwspKBMnNr0F64WaP7BxKY7errUQ7361jBr0wnOid74btkFpBUp8Dh4DTaH5GudLkMb11Z4etIfZzPVABRQKhVQFEHg3AcIPHQH3X/1Q2TYfNQ/7Mc+7uw5eP92GjajP4O7VR6eFRJIIUeh1iyStXFFq6cn4X9W860KhVIJhaKo5PUXkyEr8BDudP8VfpFhmF//MPwiHNDJORHe3y3DhbQiKB4HY83mEM05JWeXogj3xm+nbTD6M3dY5T1DIREU8kKoykqw1BJWFnJkZRYAXDrikrJRqNA8Xc86R7gNHqTWPZ/LxtNsFWo0aYa6Jka8DoJa5wA1Mv6eh99PNsW38z00fwXzr6HOwN/zfsfJpt9ivkfxX3U6EAoLCzTnKJOQnNsV/TreEBy/0kVKgXDv33DaZjQ+c7dC3rNCECkg1x5ko47RILz4aWDmWNUCHd1SsWP+WkRkKZBz4y9sOJaJNp2ckej9HZZdSEOR4jGC12xGSD577KAIN6KvDExaYsI3vRD561TEOH4MR9bXPWUN4DhgJN63vI0b0i/hd/hrOMvM2PE9CMShO93xq18kwubXx2G/EM3yIOGgVKqRl/MMXEmezNGhbzfQxSCEPgcAFdLSOfQa0hOW5a7RMuaBNmXkSRet65VxYSKCWk2G+8K/ht4/8GDGqUKLjm5I3TEfayOyoMi5gb82HEOqGqXxmndA326Ei0Gh0ISRhnSuF4b0tCyzHy9groPFa62hkAEAVIjCAs2ByqRk5Hbth646fyGw6+bsOca4Ku3h1OopTvqfhWZZV0KpUKCImRv2GOqtCe+/J5yfsmroNaylry3XWiez29C//xkTr+C9zqwN414WJnhPBkpjNHV+F26pOzB/bQSyFDm48dcGHLt/mTm+qpbs9o2JnYXJ/Ln/mR+5dxv8j4chKvIijvvtxLXGP2DJN+6oVa0t3muTiYDFMzHrf3/har1x+OlLJ1Qv2TlJUatdRzS8uR6zF/oj6v5TPEqMQ45VC3TuNQKDXXnnejTBtT+mwOt6EfLTn0Di/ikG9h3EaOMdmN3bgT+9AhH7rBpk6ecRmdsWffs5ah5uBSCt1Q4dG97E+tkL4R91H08fJSIuxwotOrZCUfAWrDscC/NOfdAtdR2meF1HUX46nkjc8emEgRjUqw0yAxZj5qz/4a+r9TDupy9R/+FhbPLZh5sSN/RslY9TOzbjWFJ1dBv2LoqOLIFXYCyeVZMh/XwknjVpgtxze3AgMh9Nu3RHe1v+w7VmqKOOgdcvSxF0h4NNjTRcfWSKZnXScGrnAaPayG3bF/0ca5fc5PMTL2DXxo04fO0x8p89xt3Is9jvvQanzcdi1ZrpcHhysczXXaVJuLBrEzYevoq0ogI8uReO4INbsPViNYxbswHfvlcTBYkXsGvTRhy+moaigie4Fx6Mg1u24mK1cViz4Vu8V1O3lwAh+9I2rAt+DKX8Ea6duAjuk/n4tosdVHd54/esCZrknsOeA5HIb9oF3dvboZ7yLnb86YXA2GeoJkvH+chctO3bT+thSgksFfrHOHZshJt+G3Ao1gLu7zZA7P7N2HuNQ5seLkDoLmzadwNq5+5oqziLHRsP4pbMHf0HNscT/z91c+w0DDPGdULagd/xw88rcPRJF3zz42C0aPce2mQGYPHMWfjfX1dRb9xPGCk5hc2M+ujarz9s03Yb6KstrPmpA2DRsgmyjt9H13lfwsWS/yqgzjyOhZPnYVfIFYSdO4HDARfxuG5n9PuwP9ry4vNocg1/TPHC9aJ8pD+RwP3TCejazBp0/2+s3nQSRa3eQc2ru7DhcCzMO/XDyA+HwunJDvyxIRz3kyMQY/055v3XHZLYQxU0D9TIjtmP9esOIdbCHX16tEO1pLLntDorGnvXr8PhWHN0ercBbu7bhH03JXDr2Qr5p3Zg87EkVO/aFx0Vl7HFxxcnkyzQ2tURrv0Gw43fl2kt8OjQJmzY92IMauBh4Eb47L0Grk0PuCAUuzbtww21M7q3VeDsjo04eEsG9/4D0fyJPy9OJwybMQ6d0g7g9x9+xoqjT9Dlmx8xyCq2NN5+A/Hh0HZ4suMPbAi/j+SIGFh/Pg//bZmKw5t8mP3oa1+zdLCtGGvtxyY4u8nHYG3361EfsbvXIfixEvJH13DiIodP5n+LzpLb2L9+nWae9OmO9t166tX1l++Y4d4O/rz4CP/3eRvcWj8bC/2jcP/pIyTG5cCqZS90paNljqHgmvBeYzh3c9LLz7QWj3Bo0wbsY9YQXstaWvG5noE2qYexacM+ROY3RZfu7WFb30m/Dcb9b1CfRrjLzz8vXsF7XedeGDHYlXcvm4CO3Tox7sn2aG11Hf6bDyPWvBP6fzACA9s+xoHff8DPK47iSZdv8OOQlgB/3c5ti34fj0Z/G/32W/ZyBx1dWmbsLCRERu3tREQYcEhY2huDkuYhxqcveE8RiBgi5wjmra2Bn+b0hhX/NQCquzuxLKQ1xvapgdxnz5GXFY99B1Pxn1XfoTXrnRGRfydcApb2HoSkeTHw6fumZ+E/fE2oUrl+OylrQyIiYhBOrYaaM/SGmog2XOJh/DnvTyyaE4yGo3oyNxxAEc6vXoQDV+PwiKsFG7uGsJZnoUHXfmgubjhEdOCgVqtRVabhP3tNqFq5fhsRNx0iL43iQTjOZzVBO0k0ztzN478sIgQVIjMpGbLhszC1rdAOwhy9f9+ObxqGwnvWf/HfWatxVjIAM8a6Qv+RU5F/Lwo8CD+PrCbtIIk+gzc9Df/Za0LVyvXbivjxioiIiIiIiEilIL7TISIiIiIiIlIpGLfpeJ6A4A1LsDv6bfkgKx9JZzZi5f5Yg1/fqRoUICEkAMEx+j+OxUedFYL1i/xwW1W1xkUnrpfmbRu3iuI5EoI3YMnu6ArutxpZIeuxyO/2y11XnYWQ9Yvg92qDKiIiIlKCEZuOl7RFVgQ6hkzjqRATXlm8ZFyC5Afjj+/3INW6phED8sIU+jrGRY3szGyDGx82r24wfe3jVpmUo0YqxAYqhJ4FtXy8ipVSnZ0JI1Pw5inHeImIiLw8hu9xkKKBax+0tzPi0ApFjYzA+Vh6Rue3fI1CatMRgzo1htAjeq/Gy8clhCpRiX7emzDO3nDE0jrdMHXWaLSVVfy4qDMCMX/pGbxMz0rj4r9iPK933CqT8tWItIEr+rS3M2YylhMp6nSbilmj2+rLEo1BWgfdps7C6JcZVHUGAucvhZEpeMOUb7xEREReHpP58+fPN2i549kiyzpenRGOrUtXYMfZJFg5dkAzaQKO+qzB8bwWeK9FTX3LIdPe2QYIW6pjyOzYKBWBLPudNgImPJmeUZD/AzR8k6kDCq+y7Iat0DJjE8Zrx9WqOtIZ5sR0Y4yFAKBKRfjZKNy5fhFXs+uirWNdPAvfiqUrduBskhUcOzSDNOEofNYcR16LTrDLDSs16Ep4Fk9GP1lWQxbqJxex1MMTK28oIFOao3HHVjBPNmasNGbHQm2zb3ktrULjxrRS8iPXtyyapkdi/7ZQqJrk49SaDTiR0RAdnOpDz+vJsyw6m93Bbu9VOPjADj2cFLjsuwprTubCsYsjahndp5epXb4NlN1vtYGx1H/dmmdBVSDl/D4EXI5C2LU0SGQKFKTH4thWb3afFQ90rZR69WWKdJZBtW4OLi71gOfKG1DIlDBv3BGtzJPLXZusdUaoj2yrqX5taAyc2rZYZ1hd17Xxsuc0ALW+sbr20xBs3nwNtTq1QZ2K3zWKiPzzMM5yp2WLNHg8R0/3f0FN3efSdSUR0VPa9/sSCpOzLIdl2Tu1DJkC5kcdhEx4DKMg35TLNJky7YZhVKQTl4BZ8rGR5lPuEfl7DqOfL+YQVxhLG4Y7Us9FUSTnntL+L5qS+9zrpEnhPvp9SRjJeaZQnXFh9pNhNSyDHN+hVH+0P+UzjZRljBUvrvKdKzBuArmNkmtHzLAszg2m6D2TyLm6O3n86UO7tv9EPRv1pGV8rSfTsqigpBW9qInnUZITkTLiZ2rvNpPCisrZp/LWrpY1V8hWGiXPMTCW+q9rW1vlRJQTNI06jdlJGZycwme5Ua33ptPW0EcCfeZ4Vkr9+pobfFXYoJrjS0PrjyZ/TTHpnWuwNpnrDKOPglZThX5tzItk2mJjVYbndBTTWE2kjFlP44bNo3MvTM4iIiJlIi23Kc7g8VLU/fArfKb0x5aQQnD3AxFv9zE6WrAsh2XZO7UxbDcUMuGxjIK6plwhkynLbshDyCx5pYURxkIVVLc3Y3lIUwzoVBNSc0eMn9EXD7x9EKyoiw+/+gxK/y0IKeRwPzAedh93hAXPoKsNu58Mq6FRlHOsdOIq37lFAuMmlFufYK23wFmWRVtLuA7qguYWLTDk62kYO3Y8BtqnIZmn9WRbFk1gKjMpfRfMVFb8UU/5+lTe2tVBsN9KA2Npove6trUVUCE+9DKe1bdDDakF3Dq7wdKkGbq/20igz7pWSlZ92Vq2fGmDqsHaZK4zjD4KWk2j9WvDpoBpi22pPbUF81+ob6w2B2TOU7H9yHy8z/6FNxERER7ScpvijDnerCMmf2mLgPUHEBKYgVbD7WEiZDkUtHdqY9huKGTCY9v+dCXiRplMWZRhljTGWMilPkZ6gRylpzdBI3kunnOAWcfJ+NI2AOsPhCAwoxWGv3jeQ/u6WrD7ybAaGsVLjJWWwbQ85wqNW5m5fQHTsviuJpaSg0xhYkLglxTbssivuxeUr0+6GK5dHQT7bWlgLKsxXy+1tsrgMmwUGkXuxcmUVISHpcP90yEGft1Uy0rJrK/qr2BQNVCbzHWG3UcNxXG8sJoqcxi10VHQFluCYP45fWN1Or+nIiIihpCW1xRn3PEmsP9iMt4NnYP52Z3xQV0IWg4F7Z3ahsyM01jDsN8ZY51l2/60TbkCJlOFqYDdUCsueUv0FjQnGri5ADDv0Bfd6CKCNHpMqNLSwfUagp6WAEzs8cXkdxE6Zz6yO38A7U+7Wddl91PfaggABcmXcfpaut43RKQSCTilEuq8Ati6l2esNGjiKt84C41bmdbOFzAtiyEC/kldmJbFVMDSygLyrEwUgEN6XBKyCxVQlLNP5a1dHQT7LWeOZSlZAq+X/lEga+CIASPfh+XtG5B+6YfDXztDBqlAn1+crjmbXV+CCQCkEkg4JZTqPBTYujPOZdfmC9jrzGMcZp7DsJr2dGPURjic32XZYo2b03rG6hAFUJiCiMv3IP44pYiIcUhlrXuhj2QXPIdNwYoYGRo8PQf/s4+1DlEj+9bfuJyUjZizwUi2NXS8Bmn94fjP6M7oO7x7iVui7ifLsNmD4DvSEY1dPXGuzTC4pQQhJC4PseeO49a9KzgemYInN0/jUooJ2nV1xfVlX8IrsiHe7yPBLs9hmLIiBrIGT3HO/yy0WzVpPhmrV3bD1a97or/HLGyPVsE8LQwns4dg2WYPkO9IODZ2hee5NhjWw1rrTBla9+oDyS5PDJuyAjGyBnh6zh9nH9dE3zEDcWdOHwyeuh1ptW0he3ABF5K14rosw0fLN2N08kKM++Z3/Pm/o2gw1wseNeJw/PxdyO+dx5HoRNwMPI+45/dw/thNJFw7govxubhz/jTiLUZh+ebRSF44Dt/8/if+d7QB5np5wFYKAFLUH/4fjO7cF8O7F2dQnYWbx0KQkBODs2fjdcYl3vwT/X52M0d6wG+Y+ssa/HXiCVxmTAVQhHOLPsPHH36L3U+00gDAsl1XuF5fhi+9LkP2cTnGKjlNK67Eco1zuHQ8e9ziLTGKlVtNcoqpi0+WbYYH+WKkY2O4ep5Dm2FuuBMUgri8WJw7fgv3rhxHZMoT3Dx9CSkld1JA2nAslm/8FIWrB8LBvh+WyPthZFsZavYdg4F35qDP4KnYnlYbtrIHuHAhuVx9Km/tqrNv4e/LSciOOYvgeHN2vxupGWOpfRGV3uvqrJs4FpKAnJizOJv4HFmXD2D98jn4Yc5czJzyMUZM+AN/P1YL9DkRWTePISQhBzFnzyLRklFfbikIColDXuw5HL91D1eORyLlyU2cvpQCWLZDV9frWPalFy7LPtY/l1mbpTDXpdMPBc+RX9+HxV5rsXLBXljN8oJn0/qM2ngfDccux8ZPC7F6oAPs+y2BvN9ItJVZGp7TtoAqPQC/Tf0Fa/46gScuMzC1rwUUV9dj2vglOFegE76IiIgA4s+g/ytRIHL5EqR4zsGo2vzXRP6ZqHB35zKEtB6LPjVy8ex5HrLi9+Fg6n+w9rvW/IPfIv7hVlMRkX8YjEcSRf7ZcEgJ2Y/4jhMwQtxw/HsoOo/Viw7gatwjcLVsYNfQGvKsBujarzn/yLeOf7bVVETkn4X4ToeIyL8CNTKjdsPb9wSi01Wo6dAFo6ZOxuCWb/fXLhQPLuGvtWtw/FkHTP7uP/jAUfchcRERkaqFuOkQERERERERqRTEj1dEREREREREKgVx0yEiIiIiIiJSKYibDhEREREREZFKQdx0iIiIiIiIiFQK4qZDREREREREpFIQNx0iIiIiIiIilYK46RARERERERGpFMRNh4iIiIiIiEilIG46RERERERERCoFcdMhIiIiIiIiUimImw4RERERERGRSkHcdIiIiIiIiIhUCuKmQ0RERERERKRSEDcdIiIiIiIiIpWCuOkQERERERERqRTETYeIiIiIiIhIpVAFNx1FeHzzEkJCQhASEoLQyATkqPnH/MPJT8KZjSuxP1YFqLMQsn4R/G6r+Ee9YfKRdGYjVu6PRVWLzCheMa/5SWewceV+xL7c6S9BAe5f2Io/tkVCwX9J5DWiQlbidURFJyNbxSEn+xmq4nKkzgrB+kV+eMlyfnt4noDgDUuwO7oqdLQQiSEBOB2TzX/BIM8TgrFhyW5UiW5UMlVw02GKunaWuDB7IIbMuwyrZjaoXgWjfH2okRoTAO9Fa3H2MQcAkEikkEr4x71Z1KkxCPBehLVnH0MT5dvHS+dVnYqYAG8sWnsWxUP02lFnJePK3lVYHBj3dm7y3hTqbGRmv+Q2gUvCnqkjMWN7FO5G7cXckZ3w/i8Xq+imTwKJVIqScn6VfldZ1MhIuIhdK7xwMrmSZkFZecw/hT9+3Iv0ajX4r5SNOgMJF3dhhddJVFY3qhJV8HYuhXmdtnBtURP12naEUwMrmPAP+UcjhU3HQejUuLjX0jroNnUWRreV8Q98o0htOmJQp8Zv79i8Sl6lNug4qBNeDFFlIK3jhIGdm7+9+X4jqJEROB9LzxTyXzAKRdR6LL7dDb/+Ogmfe87Emh0LMLRBFVwyAUjrdMPUWaOhKedX63fVRYoGrn3Q3q6yxqDsPKqSOPRfux5jm5dzVkobwLVPe1RaN6oYJvPnz5/P/8eXRpWCv5f/hJ+XbseF9Abo0Kk5qr1UYlW4F7Aaf5t9hP8OtofebSHvNo5s3YWg4HO4nm8L15a19Y9BARKDd2LLziMIfWSN1s52MM24gkO+51HgQAhd54ND96zg7GKGGD8fbAy8j9purmhkUYgHl/zhf02KavF7sGZ3BApsXdG6LiEt8gC2XsyFdZwfttyoiR4u1fTasKZMRB3yx4nQKFyNzkY1FwfUzTcmXoBLD4Pftr04GZGI+CsRMOk/HUNsUnHJfyciTDrAqQGQGXUI/idCEXU1GtnVXGBbEAZ//2uQVovHnjW7EVFgC9fWdWEKAKpUXPbbgX1Bp3E1uy7aOtaHuSINkfu3IVTVBPmn1mDDiQw07OCE+qYAChIRvHMLdh4JxSPr1nC2sy79y6k0SIT5bcPekxFIjL+CCJP+mD7EHjJGvq21TlanRmCn9yocfGCHHk4KXPZdhTUnc+HYxR6FV/ZjW6gKTfJPYc2GE8ho2AFO9U0B5OH2ka3YFRSMc9fzYevaErX5iVMz8i3Vj8U0PRIHtl5ErnUc/LbcQE3Xmog/8CKvUma9aMevgUN6mB+27T2JiMR4XIkwQf/pQ2AvM/Lc8IPYG3gCZ2JUaO7aDNWlgCr1Mvx27EPQ6avIrtsWjvXNiw9PR/jBvQg8cQYxquZwbVYd6mh/rIxti/EOt7Bh03GkN3wHbTUDp98+qw515qJQnZsy55c6jZe/Ti6wvHcEW3cFIfjcdeTbuqKl/uDo1qtVXTw9vg6rDj6AXQ8nKC77YtWak8h17ALHWlrBqTMQvnUpVuw4iyQrR3RoJkXCUR+sOZ6HFp1awDQ5GDu37MSR0Eewbu0MO9N0Rk23AcKWwsNzJW4oZFCaN0bHVjLEGqonbQpuwG/hWpxVu6Lnew6oad0czW3MUbdebUhZOdcZcwXSIoXqGihI5PXBWsIcc2Y7jLG1fnQJ/jsjYNKhDSShvH43SkWgwfXH+PpUpEVi/7ZQqJrk49SaDTiR0RAdnOoLrzlg17OUlQfTdEQe2IqLudaI89uCGzU7waWBVrSUi/DtW5D23gyMcJQh77aBGlSk48ohX5wvcACFroPPoXuwcnaBWYwffDYG4n5tN7g2smCsNQ5QXdbOYwM0zjmDv7TW/3dbyRBz+jpMOjihgRTg0sNxcG8gTpyJgaq5K5o8jxJY8xxR83k4tm9Jw3szRsBRxm/bQF0a2ycj53HdTN24m1WXMs/VDkmddgHr/vTCnpBU1GrTDo1Nk3Fs9XIcfmqPbo61tY5kQBWGkq4v6ESWEhAAgqQG9VkVxz/ISOQUMMGWWnx1hgr5L5Gcjk1sQUM3ZRCXsYNGNR5A3g853jEqStj6Lc069JCU8lhaNcCG3OeeppgD06m9VWeatmknHT6ygkY2a0Yfzl5DvgcP0OIPm1K72ZFUlBpJPmMcqGH3iTR38Spa8JkL1Ww8jvbevUF7p7qRdTsPWrHiV5q+IFC/jXmRlLPPkz5fn0ocl0aHZi+kU4XGxEvEPT1GXw+eQgceqUiZuIGGNrCn6acLKP3aFhrX2obGH5ET5ewjz8/XUyrHUdqh2bTw72SK9BlDDg2708S5i2nVgs/IpWZjGrc/gzjuEfl7DqOfL+YQVxhLG4Y7Us9FEfQoeg9Ncq5O7h5/ks+u7fRTz0bUc1kcqVQJtPXbWXTooZLksatogI07zYtU8oOkY18PpikHHpFKmUgbhjYg++mnqZCV73mRuucSR0krelETz6MkJyJlxM/U3m0mXUqNpj2TnKm6uwf96bOLtv/Ukxr1XEZxKiL5sYnUYugmyuAyaMeoxjTA+yHxM6efb0Ysc4Pp5t6p5GbdjjxWrKBfp/9Gu09vKs2rkfE/PfY1DZ5ygB6plJS4YSg1sJ9Op1nt6Z2roqTtk2nC6hjK5x7RukH1qPuSWOIe+ZPnsJ/pYg5HhbEbaLhjT1oUJSdSJdH2yRNodUw+cY/W0aB63WlJrIrytw+nmh2n0LpdAXRgXl+y6+1FSSp2+/p50Y2IE6jz/Rn5+vWa8oSXvwUUlBJIE1sMpU0ZHGXsGEWNB3iTXlnz6/VUIXFJK6hXE086qikC+rm9G80MK+KdSMQ93U9fNHWnudc1Nfh03++0JExOqoSt9O2sQ/RQKafYVQPIxn0uBV8VqGnKId+h9Wm0fz4RGVdPusjp1jZPalfLlGq2GUG/7rtFeURG1QuXKVzX+n2YR5GFrDEvYrajN7YF6XRtyzhqbTOejsiJSKffxqw/5ajPiEcUvWcSOVd3J48/fWjX9p+oZ6OetCxORcRcc6JILlDP+nmYS8HX9tJUN2tq57GCVvw6nRYEZeiGyqWQV287zbyVHzNQgxxlxRyg6e2tqPO0TbTz8BFaMbIZNftwNq3xPUgHFn9ITdvNpkilUG2U5pHLvKm7/v+2WyfnqqTtNHnCaorJ5+jRukFUr/sSilWx17ywIiIuxYt622nOZbcthLF9Yow7Yx4HRm1jxM04l1EzCd4DqVFvL0rmiIgyye//ZtKxXN5hDF7qfQg2z3ElLBpyKv5fysPVy9d5x1QEZnhn0lrM6fUUp47dQh6y8CSL95kbdxd7fKOQn3UGe/ZFwKLfRPS3tYDzoK6wN7dBl7GfY/iwyRjRPh9mLp6YMPIjTBjqhPTkFKgbvYMBHexQ3XUMZs+cgTm+q/CFWRAORrfE4K72MHPoj8nf/Q7vnx3027BRwMRCgsuLPTBzazzcv5+B98yNiBcc4n0X46T9GAyxNYGsaS90byXTvJ3oNgidmxYPk4kFJJcXw2PmVsS7f48ZXZvhnQEdYFfdFWNmz8SMOb5Y9YUZgvafx/Pbm7E8pCkGdKoJqbkjxs/oiwfe63G11SB0aW6BFkO+xrSxYzF+oD3Skh+i6O4e+EblI+vMHuyLsEC/if1ho5DrRhnvi8Un7TFmiC1MZE3Rq3srze6XlW8b/U++TWUmpe+cmMpgAkBaxxWDujSHRYsh+HraWIwdPxD2acl4qALM3pmEtXN64empY7iVB2Q9ydJ7iE8v3zJGLLaWcBncFfZmDug/+Tv87j0Xn/UaXJpXY+Ln4uG7+CTsxwyBrYkMTXt1RyuZkeeqYrB1TTych7aBldQWk7aHY8fE5ri9eTlCmg5Ap5pSmDuOx4y+D+DtE4znMVuxJt4ZQ9tYQWo7CdvDd2BiSxMAEpg0fR8eYz/E8DF90PRxIu4r2O3r5aX4DZQXSAXqfP95tX695tTi5W8OPrBzx6S1c9Dr6Skc0wwO9MqaX6/vmWvGvbQIIBN4Z1pa90N89ZkS/ltCUMjdR2C8HT7uaIq7e3wRlZ+FM3v2IcKiHyb2t4VlS3ZN8z8uN6aedLGA0/gtiIg5hd+7pWHT5++iy1eBSFeyc66NcF1zjD7YoOAKY8zt45nt6I2tZQO4DeqMF+WsixHrT3nqc/1VtBrUBc0tWmDI19Mwdux4DLRPQ/JDFVTMNccHf7P61hKMPNjCssVgdLU3g0P/yfjud2/M+aC+bqzamL1joAalqO08CF3tzWHTZSw+Hz4Mk0e0R76ZCzwnjMRHE4bCKT0ZKUasNdI6Lrrr/9zPtHKuQszWNYh3Hoo2VlLYTtqO8B0T0dKEvebxMdS2Lsb2iTHuevN4FpoEeDPiZpzLrxmYwOHLWfgk1RfrIoqgfnQYkbVGol913mEMmGX6clTDuz07odqLDEtroUuvjrxjXpGiLGTmqSBPOQmfdRGoN3AI3GoB9GKj8wIuG1lZHBp1GYtx48Zhyo8LsHDSu5qHrSQlAcJE6ylCmVQKIrXWYBe/ZtYGbewBTgVIJBLNw4cQbqPa0NX426sHHq4dgXZ95+BcuhHxQoXEuCSotGIrrVStmKsNxeq/vdDj4VqMaNcXc86lvzio+HAztCkOlkt9jPQCOV5sG2SNm6CRPBfPOQlKmgFgamICUqvBZWchi2uELmPHYdy4KfhxwUJMele3glSJcUhSSUpCK3lsTSAXxlI6JgBMTWBSPA5qeQpO+qxDRL2BGMJOnH6+H2eyY5Fo8igtqXitvBoTvyoRcUmq0ty9GCJjzuUy8TTrCTIyNE+dyuo3Ry3kIPVxOgrkJSOExk0aQZ77HIrMp8h6kgHN4TLUb14LyONNepkJTNQqcCp2+3p5SecvGi/g17maXa/8/KnlSDnpg3UR9TBwiBtqgaA3OmXUq2HM0HHyl7ANWI8DIYHIaDUc9iYcsrOywDXqgrHjxmHclB+xYOEkvFudXdN8jKknbbjky7h8n4OZ3fuYsTkEV/d9iqJty7E7SaDGeLDrmt2HjoWMMc9ht8McW4luDkoRGE9tylmfnKR0DQBMYWJCUKshuObkPmH0LU/JzINmLDUPxRrEmBosHoeSaWui9bCtTAopaWI3pjZ01n/NPxTnnEPm0yw8ycjQPFQvqw/WlBXCmLb5GO6TwLjrzGOhuAXO5WPVAzOm1IX/ir0I23cHdh93ghn/GAZGjKyxyOD8/T4Erf0/jB87ATM3HMeOyc35BxkNqQlqtXZPFYj1P4iowkh4/3YaNqM/g7tVHp4VEkghR6H2nzVmbdDJORHe3y3DhbQiKB4HY83mEM1rzOzxIRQWFmgKWJmE5Nyu6NfVAtAuaoE2sgIP4U73X+EXGYb59Q/D72yI4XghQxvXVnh60h9nM9UAFFAqFVAUFb/8IuasQBy60x2/+kUibH59HPbT9IkKC1GgCRZJybno2q8ranboi250EUGhzwEAqrR0cL2GoKclmBPTrE0nOCd647tlF5BWpMDj4DXYHJKvc4ysjStaPT0J/7OZUANQKJVQKIoEc6GLFJZWFpBnZaIAHNLjkpBdqNB8E4AVEBQI9/4Np21G4zN3K+Q9KwSRAnLdxOnnO8JBMBa9oX/xD8bEL2sD11ZPcdL/LDRDpIRSoUCRMeeaOuNdt1TsmL8WEVkK5Nz4CxuOZaFD326gi0HQDJEKaekceg3piRrO78ItdQfmr41AliIHN/7agGOpapBeB4Rj18tLiP47T8w673hDsF61m1eEe+O30zYY/Zk7rPKeoZAICnmh7rsLjHqVWlrBQp6FzAKAS49DUnYhFKzQAJjYf4HJ74ZizvxsdP6grmZT3ckZid7fYdmFNBQpHiN4zWaE5AuUEKSQSDgolWrk5TzBJWY9KZAZfQ5RjK8hUeYpbPrrKgoAACaw6d4TLvXqoX5tJ2bO9WAGxe5DeHPGmGe2ZrYjNLal46PV74zTWCMwniWUsz4t2R2DucCa07sDo2+pMmYeQvJZE5WNUTUI6K7bTITWGrVW/TwDx7iOJlRTOL/rhtQd87E2IguKnBv4a8MxpKrLWPNKEGpbhYLkyzh9LV3g24H6seigCDdiHgvEXSh8ri4maDnhG/SK/BVTYxzxsSPrfRx9KnDTAcCkEXpMX45tu3yxeNK7vAfXjKUQ9y/tQUDUUzw6/ge++uZbfPvt15g8qhuGH7VAp7qt0auPBLs8h2HKihjIGjzFOf+zeKxzjbr4ZNlmeJAvRjo2hqvnObQZ9g7uHj+Pu/J7OH8kGok3A3E+7jnunT+GmwnXcORiPHLvnMfpeM2NVn59HxZ7rcXKBXthNcsLX9a4g4DzcSi4eRx7ojKgZrbRDar0APw29Res+esEnrjMwNQBrkbEa4Lmk1djZber+Lpnf3jM2o5olTnSwk4gKuIYQhJyEHP2LOJz0xHw21T8suYvnHjighlT+2pOl1/HvsVeWLtyAfZazYKXZ1NI647C8s2jkbxwHL75/U/872gDzPXygPXdIITE5SH23HHcuncFxyNT8OTmaVzKH45lmz1AviPh2NgVnufaYFgPa90om0/G6pXdcPXrnujvMQvbo1UwTwvDyXhLRi566JwLADX7jsHAO3PQZ/BUbE+rDVvZA1w4HoygkDjkxZ7D8Vv3cOV4JFKe3MTpS4/RulcfSHZ5YtiUFYiRNcDTc/44q5M4tX6++9rpxzLUFbcCziOu4CaO74lChlqNrJuleU0sYI0lL36T5pi8eiW6Xf0aPft7YNb2aKjM0xB2MtvwudKGGLt8Iz4tXI2BDvbot0SOfiPbou6o5dg8OhkLx32D3//8H442mAsvD1vIGo7F8o2fonD1QDjY98MSeT8Mt72HwAt3URB3EUE3YxEVpMnTmcsFjPYZddjXQjemYvh17unQRr9e/QJxLlA7f4CsdS/0keyC57ApWBEjQ4On5+CvOzhQqxj1WrMvxgy8gzl9BmPq9jTUtpXhwYULSGZtPKT1Mfw/o9G573B0t9L8U91PlmGzB8F3pCMau3riXJthcEsRqOkUE7Tr6orry76E1+UCdj09fIRDcyfg530J/NYBqRXklxbjP1/NxOyf/w+Tpx1Hq5XLMKa+EfXy7I5AXacw+/C+g/6Yj2zbkNEOY2x7F+DmsRAk5MTg7NlEAJal/Y5siPf548lff8pVn9a4GxSCuLxYnDt+C/euHEdkyhPcPH0JKdXZa05jG1bfZIw8DIVrcgDOxxXg5vE9iMrgv1WgRvatv3E5KRsxZ4ORbGu4Bp/fPY7zd+W4d/4IohNvIvB8HJ7fO49jNxNw7chFxOfewfnTybBj1cbj0jyuOBWJQO31X52llfNkNBy7HBs/LcTqgQ6w77cE8n4j0VYmsOadu4Fbf19GUnYMzgYns+vycRHOLfoMH3/4LXY/0emScX06L8N7/HHXm8dSdtwWxtxji6k1BF+Na4V3Bo5CEyPv9xJi/vn0b4ZDwtLeGJQ0DzE+fTVPXldhuISl6D0oCfNifNC3qgcrUoV4u+pcROTfhwKRy5cgxXMORhn4QsibIwdH5q1FjZ/moHfxHwaGMHJv8u+CU6uh5vTeS6qacGqo1RzjLUURkbJ5q+pcRORfBYeUkP2I7zgBI6rihoNLxOE/5+HPRXMQ3HAUehq54YC46dBH8SAc57OaoJ0kGmfu5vFfrlooHiD8fBaatJMg+sxdVPFoRaoQb1Wdi4j86zBB0+5j8dn7dsxvvLx5CIWZSUiWDcesqW3LFaP48YqIiIiIiIhIpSC+0yEiIiIiIiJSKfzjNx2GbaDPkRC8AUt2R1fgcxEVdc2Kus7LUMltv3XW11ejUuLVthVXBgX3cWHrH9gWyfoqioiIiMg/fdNhhA1UnZGAi7tWwOtkcoXdXCvqmhV1nZfhTbT9NllfNaiRnZldxq8HClAp8erbil8vamQlX8HeVYsRGFdZFSMiIvK28c/edBhhA5U2cEWf9nYVmoiKumZFXedlqPS23zLrKwCoMwIxf+kZsB2UZVAp8fJsxa8dKeo4DUTn8ho3RURE/lVUrGW2glCkG2ODBQAVUi/7Yce+IJy+mo26bR2hkXQK2UAZVkNrIDd8O7akvYcZIxwhE7ymMIavqY3xNkeAjIhNwbDfNtA0pU7DhXV/wmtPCFJrtUG7xqZIPrYayw8/hf27jqittaMwvg/CdlIFw2BYLYV/XQGbZuEDLZuuVNhWqYPQODPMnC/eQTFgMK1ZyDftmiKdYQttgzAs9fDEyhsKyJTmaNyxEVIDDZkiXyLeklMZORMwQTJtxfZyI0yW5alNfatms+pqRPuvRGzb8XC4tQGbjqej4TttNQZjli2V30cREZF/PnwD3BuHyzLKBqskjh75e9Kwny9SDldIsRuGk2PPRRQlF7KBCtgdlRylePUmu/FHSC54TX6QpRi+ps7Rxtsco+REZDi2iEc8++GCIN0WE7xpYKPe5KVRAVKm3//RTJ4KsDx9ELSTpjEMhhFb9K/LtGkqdG26QrZKrThexfoqZDAlhml3bvBVQVtoju9Qqj/an/KNMpi+fLxs6+xzpgmSbSsuNCK+8tUm26qZT9uH16SOU9bRroADNK+vHfX2SiKVEVZWERGRfweV9u650UhrG2WDValuY/PyEDQd0Ak1peZwHD8DfR94w+fvW2wbKNh2Rx2RqtA1g4XeQDfimtqUx+boE6z7tr1AbOuv8uy3cz7QPgsmDl9i1iep8F0XgSL1IxyOrIWROirA8vVB0E560YpnMPwZDie36V2XadNsaapj0xWyVeoMwytYX9kGUwtwDNOurWVLAVuoziUNmyJfIV4V0zpryTBBKgVsxUbEV67a/BtXBKyakJig6fseGPvhcIzp0xSPE++DM6KPIiIi/w6q3qYD0DWACtlguVQ8Ti9AqQSxMZo0kiM3N4FtAxWwO+qIVIWu+VzoQTwjrqlNeW2OOucKx6ZnP9TBCj1mTEFd/xXYG7YPd+w+RicdFWA5+1BCcYK1LLx8gyHrukybZp5aZ8yFbJU6w/Aq1lemwRSCpl22LVQXg6bIV4iXY1pnWfZiYVuxwfjKVZu5eMK0U2pfEJCZmECt4kBG9FFEROTfAfs+VRXgL4p8zDugbzfCxaBQaCSIaUjnemFILze2DVTA7qgjUhW6Zk9LAeOfEdfUptw2Ry3KiM2QcdCk5QR80ysSv06NgePHjrxfjytnHwC2nbSrRihWOmzs6zJtmqnFd6vik4VslT21E/Iq1lemwbQM065AcqUSCTilEuq8DJxewzZFlvAK8ZqyrLP3LzNMkErYO7FsxcImS61GylGbvdGBZadUE3vaCvVRnYnoc1Gv8Rs8IiIiVQ7+5y1vnjyK3T+FnC3a0sTdNygh2o8mu1iS69S9FB1/lbZ6tCbL9l9RQNxz4lKP05yhvWnEjN/oj19/pEVHU4gjInmML03o3JKc+oyjH376hNxbD6W5AXFEqhQKnDWAWtepQfVaD6Rfjj8mZVY0bfq0OVm5f0uBcXkC1yykY5ObUS27MbQ9gxeuEdfURpl4gL7t1Yxq1bQl97HeFJVHRFwqHZ8zlHqPmEG//fEr/bjoKKVwRJwRsSmzY2jPRCcyb/UFbY5M531OX4oy6lfqN24vZfFfoPL2QUXxS7pT3XfG0fyVa2jFLzPo1wMJpOSyKWbPRHIyb0VfbI6kdI59XY6UlHjgW+rVrBbVtHWnsd5RlEccZV7fRGPsrcn92yBKyOco9fgcGtp7BM347Q/69cdFdDRFv2dC46xKCaRZA1pTnRr1qPXAX+j4Y/1ziYjyz/wfjV5wgzRPdhARqSglcBYNaF2HatRrTQN/OU6Ps27T7gmOZOE2jfbH3KXw1aOoaa0eNPvMfVJe/YPet29Po34/StcOfUXtGjvRwMlzacm0rtSs5w90JKH0yvRK8TJyxmVQwFftqLHTQJo8dwlN69qMev5whBLyYsh3Qmdq6dSHxv3wE33i3pqGzj1MYfsMx1ee2iRlIh34thc1q1WTbN3HknfUM8q5tYcmtrEg1//so+g7YbRqVFOq1eMXOpuiZPaRS9lEw5v3I6+7Kp04RERE/rmIP4NuNG+D8U+YnCPzsLbGT5hjrApQENFOKiIiIiLyclTdj1eqFFXc+CcIh8TDf2Len4swJ7ghRpVHBVgGop1URERERORlEDcdRlHVjX/CUGEmkpJlGD5rKtpWQPCinVRERERE5GURP14RERERERERqRTEdzpEREREREREKoUq+DPoRXh8MwI34u4jJSUFD9KVqGFTBxYV/pPJ+Ug6sw3brlijk1O9t3P3pc5CyIaVuGTVBS7138oeVGEqrz7yk85g27YrsO7khHqv0NDzhGBs3RwGs3dd0RD/1Np4joTgrdgcZoZ3XRvqjkvBA9yIuIn4lBSkPHiAh48zkFNogmq1qsGseP3Iv38dkTHxeJhjgvoNa5T8vP/z5GuIjElAyoPHyM3PRvzdONxPSUHKwxyY1G+IGno/Gf964bJv4diWnYip1RlOdV/f+OnU3muuGXVWCDasvASrLi4ouXxBAkKOX0Vu/eZoYFmxizyzvTIp35yvqHlbFuon0Qg+kwBpsyYMbcGboHw5YvEy57xmTFHXzhIXZg/EkHmXYdXMBtVfQ5Tq1BgEeC/C2rOPeb+9oYs6OxPZ/F+CqkIYZWZVZyOzKneiCmJsfbwyFWWcVWcg4eIurPA6ieTiZ3yNqg0Bqmrdl2k/tqgPW9NT+L7/J1h4Ig4PU+7g/F/fo79LJ4xdEYpMNWBRrwFM76zHhG698N9DqSU/8mbZwAaKgPlYc6cOmjSzQ83rizF8wCycNbdDPZ0f06sMOGQkXsSeletx/rFeLysORu29Ss0YRgKJVPri9+oAAPnBf+D7PamwrvkaFnlGe2VRrjnPyF3Fw+H+rtmYH6pALc3PIL1xypUjAV7HSL8iUpjXaQvXFjVRr21HODWwei0Pb0ptOmJQp8ZlX1udgcD5S3FG6FfQ3zRGmVnVyAicj6VVthNVE6PqoyKoKOOstAFc+7SH3YsZbVRtCFCF675M+7HUAvVdXOFgXQuuH4zF6NHj8NWCnQje/QnS/vcRJvgmAda26OzxJQa1ysPBqR5YHVMEADCxaoQOLh3Rxq05alrVQat2LVC3uj1cnOvCnNnY68QENu17waWhsbfLl4Rfe69SM0YgrdMNU2eNRunlVUhU9oP3pnGwf9X6Z6DfXtmUa87zc/daeI6UhhOx83+9UFW+NFmuHAlQsR+vqFLw9/Kf8PPS7biQ3gAdOjVHtZeasCrcC1iNv80+wn8H2/MsrZrX9W2rgDozCof8TyA06iqis6uhvYPmlyZ14NIR5rcNe09GIDH+CiJM+mP6EHvI+MZOBxUuL/WA58obUMiUMG/cEa2qpzPMp2pkRh2C/4lQRF2NRnY1Fziw3g5VZ+H6gc3Yuj8YN9PTEffAFLWzguCz6iAe2PWAk+IyfFetwclcR3RxrAVpAd92aq2/Y9c2s9bKQOT+bQhVNUH+qTXYcCIDDTu0AcKWwsNzJW4oZFCaN0bHVuZI5ts+lWmIPLAVF3OtEee3BTdqdoJLtRS99omR37zbR7B1VxCCz11Hvq0rWjLfA2TbS5kmWUUaox9OGlMp6/gyrq9nzjVN1+9nA168QvVhzHiAZV6VCuRIyDibZ4QNVhMn3zoryQ3H9i1peG/GCDiqeNZehuXVND0S+7eFQtUkH6fWbMCJjIbQlAyv7s2TDfddnYmoQ/44ERqFq9HZqObigLpS9jxVpDHadaoPU/41y2U/LkZ5GwdXnkWNz6ZhQBPN0mja6B3Y3d+IBfvVGDK5D2wpCSEPOmBS0+P4flUy3McMQAtLCYqiT+Nyvd7obWcCLuVvrNsnR/9vR6KNXiNalFWvzHVKgfQrh+B7vgAOFIp1Podwz8oZLmYx8PPZiMD7teHm2ggW9BQh2/yQ16U3igLWYd8NDk3dHFBbbdxc1RsfHQRqT7tmamUY3Q6r5ln1qXhwCf47I2DSwQkakXQ4zkbdwfWLpfbi8tSGDmW11742knd7Y9XBB7Dr4QTFZV+sWnMSuY5d4FhLEytrzsvLNW9LQ1GnXcC6P72wJyQVtdq0Q2PTZBxbvRyHn9qjm6Pu9oHZ3zYqXNvpjVUHn6DbtI9gHV4ar33RNSMN7Oz5zreA13nCNkjrIZAjY9dFHfi/FvbyKOn6gk5kKQEBIEhqUJ9VcfyDjEROARNsqcVXZ6iQ/5KAbTVKnkP7PD+n9akccWmHaPbCU/wTibindOzrwTTlwCNSKRNpw9AGZD/9NBWSnGnspBxfGlp/NPnnk7D5NGcfeX6+nlI5jtIOzaaFp/QjJi6NAr4ZRd8FppBS+Yj8P29GDtNPUyGXRCt6NSHPo3IiUlLEz+3JbWYYFTFsp/MidX89kojTMrPmU2b0HprkXJ3cPf4kn13b6aeejajnsjhSUQ75Dq1Po/3ziZi2z3DKvLmXprpZUzuPFbTi1+m0IDCC0f5T/fzKj9HEFkNpUwZHGTtGUeMB3vSQ/2OaAvZSdj4j6JFQP5jHR5Fc4Pr65ty5FHyN188g3s/LCtWHUeNBbPPqc1aOhIyzxthqhayzKuJSvKi33Xg6IteuDTl73OcGU/SeSeRc3Z08/vShXdt/op6NetIyjT63tO6N7HvOPk/6fH0qcVwaHZq9kE4VCszT/Ezhdnnoj6Gw/biE/H30Wd029ENokc4/P904iMwth9P2PCIqDKbZPx+i/PyrtLhXPbIbsZnilUQ522fR3HDNeUUXvqXWDcfRIWYjL+DKmHfs/kc8jqED09uTVedptGnnYTqyYiQ1a/YhzV7jSwcPLKYPm7aj2ZFKItUdWtTFlrpP+o2Wr/qdxrrVpmYee+nuDWPmqv74lCJUe7z1xKg1Qcmu+SJGfd5+TNe2jKPWNuNJI5Jm2IsjHhldGzqw5gO/vaQV1KuJJ2mW2gj6ub0bzQwrEp7zzLVNKHd6AVGC90Bq1NuLNHLvTPL7v5nEk3sTccJzgRnvpTQjDezs+c63gB+N3qM/BiylulCOjFwb+DD+JH9ZnuNKWDTkL76AS3m4evk675gKQMC26hOshIXkMhZ7zMTWeHd8P+M9/png4n2x+KQ9xgyxhYmsKXp1b1X8l5IZw9ip+4G2oPlUaQHJ5cXwmLkV8e7fY8Z7+jtF7q4vlkS4wXNQE8hkDdHBtUnx21OmkJmU7gtNZZp/ZdlObfS0r1ItM6sUdVwHoUtzC7QY8jWmjR2L8QPtkZb8UPdzb6btU4U6LoPR1d4MDv0n47vfvfGzw0lG+wr9/Jq9g0lr56DX01M4plGXgpc2AXtpS4F8rsfVVux+FDKP90Hwc9b17RnmXFtYttDt55wP6uuEKlQfxo2HCjEs86olI0dKAeOsMTZYCFlntd/w1K4NgXG3tYTroC5obtECQ76ehrFjx2OgfRqSefpc4/oOmFhIcHmxB2ZujYf79zPwnonAPD1jZVS75bUfl40aSqUKMLeAhdaKJ7V6Bz/sWo/+MT/is99C8bzcPx5QxrwTWKfWX2mBQV3tYW7TBWM/H45hk0egfb4ZXDwnYORHEzDUKR3JKS8eyqmGdz7/Cf8341ds3TINNY8dwI2WxszVMpIkZDvmrydGrQl5zJpvfodRn61t4DaoMzQlqWLbi9dfRSujakMX5nzQaQ+AqQylS60pipdawTnPXNvKmLe6mMDhy1n4JNUX6yKKoH50GJG1RkJH7g3Nx1mCc4EVr7EGdoH5rmsBn4Vmh1bqjwHfbl5GjoxdG/hU4KajGt7t2QnVXiRKWgtdenXkHfOKFGUhM+eRgG3VEkNX/w2vHg+xdkQ79J1zjncyoEqMQ5JKUvL2T+kjRmqGsVPrRJRhPrUcitV/e6HHw7UY0a4v5pxL1z0RgOp+Ih6ojX9AS8h2qo+2jVdSajAFYGpiAlLzbleCtk/NdSQaPaxA+zb6+VXLkXLSB+si6mHgEDfUYonnmPbSPOF8cux+CB6vYF0/h2m4fbe6bj/5CNUHOx/88eCQyTKvqhg5EjLOwggbLISss/ytiVZtCI27pLSvgClMTAj6JWNM34FqQ1fjb68eeLh2BNr1nYNzj4XmKWdUu0KWYkbTRpCLS2G3YN6pJ97lPZAntR2Ftbu/h/n6cfj6WIbui0bBrteyrNAaG3Pxv0tNtNYFGaRS0p+3AMwc7NHYBCCj5moZSSqj9vTXE0PtWDFrPueJQH2W9JsTsBc/B2dUbegiOB+08yyA0Jxnrm1l5o6HVQ/MmFIX/iv2ImzfHdh93AnM55HL3V/tMRIysJcx37Us4IJjUHJFDUI5YtdEGbVXDHv1fSlkcP5+H4LW/h/Gj52AmRuOY8fk5vyDjIbUBLVae8FVINb/IKJMOwrYVuUIPHQH3X/1Q2TYfNQ/7Kd1rgZZG1e0enoS/mczoRF9KqFQFAGKcIaxU45CtQQSTgmlOg/ylr3Z5lN5IA7d6Y5f/SIRNr8+DvvpG01lrdqi+d392Hg2HWp1Lu4/KP7rVWoJKws5sjILAC4dcUnZKFQohG2nLLRuSvq3J2hKRMJBqVQjr8AW7izbJ3Svw27/gV5+FeHe+O20DUZ/5g6rvGcoJIJCXqj77grTXppapkmW1Q/B42uwrp/JNNyG5JdtLxaqD3Y++ONhCmeGefX+ZUaOlPZwYhlnYYQNFgLW2RemXm1e9FXI8srMNABpad0X2Lob0XcgK/AQ7nT/FX6RYZhf/zD8Il0E5qnGimwYtqWY0TQPgs6yATUy/p6H3082xbfzPYr/8lWD49Ql7yBZd/oZu9d2w/WAcChKTlNDTS820QVIvnwa19L5y7EGZm/KtEKXWYZMCq5H41m/EXjfwpi5mi9gxYaw7fjF69qBGWxHwaz5p22F61NzSXMBe3FPWLKzWeYYlDUfXnRBamkFC3kWNEttHJKyC6FQCM955tomOG9ZmKDlhG/QK/JXTI1xxMeOQo9esvsrFC9gRPEIznftU8saA12EcsSuCYMTtCKf6ago5JQc6ksTnU3JzL4fTZrxDX3zzVc06aOO1PqTHZRJxLStclw6bRrtTh/PXk2b186h75Zd4F+YiOQU4zuBOrd0oj7jfqCfPnGn1kPnUsDdZLaxU36V/njfntqP+p2CUhRM8ymXvolGu39Ms1dvprVzvqNlF7L5jRJRHkWu/oScG9iS24iZtPy/71Kr6aepkFSUtOMLcmzSjj6YuIhWf92dnEYtpFNJBfq2U70P9nXNrNev7KYJjhbkNm0/xdwNp9WjmlKtHrPpzP18uvrH+2TffhT9HpRCRXq2TyVlx+yhiU7m1OqLzRSp0cPqt6/Uzy+XEUBftWtMTgMn09wl06hrs570w5EELWurBqa9lNgm2ZzbQv2QM48XvL6e4fYhZer1k49AfcTl6ueDdbqeeTVPMEd5TOPsXcoIMGyDZVtnsyh606fU3Mqdvg28y7P2EsPymkW3d08gRws3mrY/hu6Gr6ZRTWtRj9ln6H6+dt0XGdF3jtI3jSb3j2fT6s1rac53y+hCtsA8pRzhdnUfw2CMYVn2YyJ6nkDnN3hQa9Pa1MnjF/rfn4to7nce9NGn/0dbIjI1z8YUpVDY9mnU8R1P2hKSpPVcSB5dXjCJFkUUkfJhOO2a0YmsTJ1pwqbzlJR1jCY3q0V2Y7YTXzItXK9F7P7nxdL+Kc5k0XYi7b6RQNF+k8nF0pWm7o2m+KtbyaO1JbX/KoDinmfTJS8PGvLRNJq/dAnNnbuRwjKNnKtcGVZsQduxds0cpWuRxrTDrnl2fWbS9U1jyN7anb4NShCwF5dRG7nCY2BUe6ok2vGFIzVp9wFNXLSavu7uRKMWnqKkIvacPxy2rxzzVujZRSVF/dqPxu1lur2JypoLBax4Ayh4j3EGdr35/jBT3wLOHAN+jPTq6yIP8WfQKx0O8Yt7YXDKb7jp3Ue0tIqIvA0oIrF8SQo854yqMl9fLJu324rN5K0bgxwcmbcWNX6ag1eWe/+DqMCPV0SMRcVxUBPj7XAREZGqB5eCkP3x6DhhxFtys3tbrdhl8DaNAZeIw3/Ow5+L5iC44ShUkNz7H4P4Tkclo06LwJbly3Gi4D1M/34q+jqIFSkiIiLyj4FLgN+s33Cu/jj8+n1/2Ak9zvEvRdx0iIiIiIiIiFQK4scrIiIiIiIiIpWCuOkQERERERERqRTe3k3H8wQEb1iC3dFav2GgfoIbfx/F5fsl37YH1DmIObYZf/wyB2tPp5T+e2VQmIVMzc9KCJCPpDMbsXJ/rL4x86Xg8CjiKIKupOl/P98gz5EQvAFLdkdXUCy6PE8IxoYluxGt0nhoQtYvgt/t19FS5ZCfdAYbV+5HrEqj0F6/yA/a3VHnxODY5j/wy5y1OJ2iVY+vEVYc/3wKkBASgOAY/V9u5c+visxPRV7rdaFdo0bBWlNFXhtvQw29DqrspqNstbYaGQkXsWuFF06+8HgD4BL/ws//i4C61ovffuMQv346vAtG4avh1jg6b23Jsa8fNVK2eWLM6luCN/GK0ATroIiC90xv3DWtVW4LYJnK8Ffln6Zd19Na8xTaXDzWT/dGwaivMNz6KOatvaxz+uujfCrvfwT5wfjj+z1Ita6pt5jpz6+KzI+R11JnI/NNFKtejRqCvaaKvE6MrKEqxiuvv/wf7qgScOl0eMZPtD+f/4IW3H3y6m1XLLTSkH1mNx1O1pIDcffJq48zfXeR/6tDlYDyOv3eow5Vb/0NnWc4dDSoKPaPbsU/FPbqcCnHaE9wur4gzCg4ul+WSOsV4e6/kJHxXyknxtRGJaCK/YO6tWLJnjR97eP8Hb2Jsvu3oYzeT3sieT8SVkLFzq/yw1H64Rn00xsq1rJqlAljTRUR0aEC1t+KVdtXBOonuMhXa9cu1NP0WiMX4du3IO29GRjhKAMKEhESGoGoc5c1it1GWTizcTX+CojAI5UKubBFx1Y1kK6nmhbQCxfrlFWpRqp/eeSfXoUjtmPQ4uwahNtPwChnrR+XFdIEs3TEGVeMUxnn3UbAgQikJEbiRr4tXFvWhoypG9eOUhviKcNZWm5AzdDb82Gprqks7TpDj6xkjYmR2nUyFCMzL/q5t9b7E4SttbZJLVV21310GhtX/4WAiEdQqXIB245oZcGP0RTpkQew9WIurOP8sOVGTfRwaaCvcTdNF9aml6Xy7uCEBtI83D6yFbuCgnHuej5sXVuitkyBtMj92BaqQpP8U1iz4QQyGnaAk8bDXkrhA1zy98c1aTXE71mD3REFsHVtjbqaCYHLfjuwL+g0rmbXRVvH+jCHAmmM/mhQIzViJ7xXHcQDux5wUlyG76o1OJnriC72hbgi1D8erJqCKhXhZ6Nw5/pFrViE55eKp1ZXpJzHvoDLiAq7hjSJDIpCoHpta8CIOV+oda1aGYxadaqLnItL4eG5EjcUMijNG6NjK3Mk8+c3Tzdu1USOCzv51ypWuzNzz4ddo/Yy6NcXv8BJd03NY6rdeejNXVNkXDkE3/MFcKBQrPM5hHtWznAxi4Gfz0YE3q8NN9dGsBCqMUpD5IGtuJhrjTi/LbhRsxNcqqXozXEJaw7n38aRrbsQFHwO11+sgfx4oUbW9QPYvHU/gm+mIz3uAUxrZyHIZxUOPrBDDycFLvuuwpqTuXDs4ohaUsN5Y6+JhtcTwzWkGXe92jfPMCpHynQj7x16Y2j8+tsoNdBwjfDh70KqBNpqbZamd14kEZdSuisXUuwqb9C8ji7Fmmu2aros1TZTv8xS//LhUmn7Vz/Q0dxCuvRDW6rV37tYcUzCmmBWP+eeNlJlLKdjE1vQ0E0ZxGXsoFGNB5D3Q46hG+fFqYO2MlwgV/Icfb09D6bqWkXC2nXW2IWnC46JYe36U4Mx6ueFkft5kbyzBLTWBek6Cm0iIuWNedTR5QcKLWLHODf4Gu2d6kbW7TxoxYpfafqCIIbGfS4FXxXQphuh8pYfm0gthm6iDC6DdoxqTAO8H5IyM5r2THKm6u4e9KfPLtr+U09q1HMZ6ZrDOUqN9KExDg2p+8S5tHjVAvrMpSY1HrefMpSPyN9zGP18MYe4wljaMNyRei6KovzMm3r90YFLohW9mpCnxtNNET+3J7eZlyhVUAuvC7OmFOxY5ELzi+ONU04QTes0hnZmcCQPn0Vutd6j6VtD6dEDI+a89rXKWD+Icsh3aH0arSlW/Rrj68an/UzeGyayr8UJ9Fc3MHaNFhKjvuaRnoVce01lqt15x7Nq+/R1OjC9PVl1nkabdh6mIytGUrNmH9LsNb508MBi+rBpO5odWSRQY3vp7o29NNXNmtp5rKAVv06nBYERem3Mi1Qy5jB7DdSFo7SAb2jUd4GUolTSI//PqZnDdDpdyFHSil7UxPMoaUzyP1N7t5kUVmRM3lhrImOs+euJkTWkX/t/Uth1I3IUnmHcvYMxhkavv8bUCAPBv3urDCxNr43ug3lGKXYFVNPCqu1Ctn6Zof7lw93diXPVPkBnTg7H0aPRKmwLfG9qPicV0gQz+2lrYZzKGGZ4Z9JazOn1FKeO3UIesvAkS62vG9f/s4iNUK6Clfp6e90TmaprHes6T7vOHDvVq2jXFQZiZGjYZYzc82pMUAkubaCr0ObBitHWsgUGd7WHmUN/TP7ud3jPGcDQuNvCsiVbm15ohMrb7J1JWDunF56eOgaNmTsLqOOKQV2aw6LFEHw9bSzGjh8I+7Rk6KZVikbvDEAHu+pwHTMbM2fMge+qL2AWtB9nrm3G8pCmGNCpJqTmjhg/oy8eePvgjJULrz8faF+wWM2t5dLUeLqFtfA657Jrqvlddix/3xKYX7xxUsWH4vKz+rCrIYWFW2e4WZqgWXd3ZPkaMee1r1WWnlwb5vzm6cZ9FmH66K7Ma6lus/sbrB2YUI2CY9SXDfhLpA4stTvvc3xmbVs4YFBXe5jbdMHYz4dj2OQRaJ9vBhfPCRj50QQMdUpHcopaoMYOIrrlYHS1N4ND/8n47ndv/OxwUq8NG4Vcfw6bs9dAXsDwXRIBN89BaCKToWEHVzQpXptMZSalz1aYyoqfiTMmbyb66w1rrPnriVE1VMio/cno2M6IHKmMu3cUMcbQ2PXXmBphIbBUViGENL06hxih2DWkmi458IVe2Hj1ry6FuLTrGswa3sX+PXvgH1UHnV0TsXPDORRAWBMs3E8jVMZQQ55yEj7rIlBv4BC8MKLr6cbTjagIlJUrS329ve6JTNW1nnVdq0+CY8ccE61LCJ5rYyBGRl4eZwrkXouytNZlKLTZMVbXaMMl0uIJKKRxZ2vTjVF5q+UpOOmzDhH1BmLIi4IAtGoJgKkJTKjUtqpH8aFmbdrAHhwUaY+RXiBHaVk0QSN5LjRTSLs/xsLuny7smsp5xI4lN0FgfkF3nGQuwzCqUST2nkxBangY0t0/xZDmMH7Oa4+5EbUqOL91dOPC1+JS2f19rh2YYI0K1ZfWuXxYanfeIUK1rZMbqYnWA+MySKWkO8a8GlMVrw2S4oQItaE3h9NVzDVQB9V9JD5QQ2r0E+zG5K2a/nojNNZ8DNYQu/bz1MblyJh7h1LoXGY8Jf+gwYgaYVG+NaKy0FJr58hbCWp6XyCs2CXNTZkMqaZZqSpD/avORPS5KOZT4eonR7A//yMs+nYapk2bhmnTZuCPWSOhOOCDA2lqQU1wWTpi/dnDQxEO799Ow2b0Z3C3ysOzQgIp5Hh8mKcbD1EIK6+1EcyVXE9vrwtb786yrr/oU1ljx8Sgdv2BgRgZGvYIB+Hcv8CAElxniEizsJKB/pWeIqxxZ2XBsMpbgXDv33DaZjQ+c7dC3rNCECkgL1SxL8iCClFYoDlYmZSM3K798P57fdGNLiJIMyGgSksH12sINLb2MhYcqSWsLOTI0ni6EZeUjcJiT7fgOSWwayqrPTuWXm4C86uYknGSNYDjgJF43/I2bki/hN/hr+EsK2POl1yhlNIxF+qFFBIJB6VSjbwCW7gL1Jju9GZfy7wDu7+a3BcjWKPC9SUEU+0uL9R5F0q4tvl9EoBRY10tdE8WakNvDp8NYa6BhdoBy1qhbfO72L/xLNLVauTef1D8l7kUllYWkGdlogAc0uOSkF2ogMKovGXprzdlreU8yq4hdu2nqo3LEWB4IITPFThPa/3NOL3GYI2wqJqbDst26Op6Hcu+9MLl3Lr4ZNlmeJAvRjo2hqvnObQZ1g3Zt/7G5aRsxJwNRrz5J1i22QPkOxKOjV3hea4NhvVQ4e7JA7iY9ACXDh1G+H1rjFq+GaOTF2LcN7/jz/8dRYO5XvCwzcOdoBDE5cXi3PFbuHflOCJTnuDm6UvI/3A5No9OxsJx3+D3P/+How3mwsvDFnh0CHMn/Ix9Cbq3bvWTCGz85jecyczEvZI77TOk5EtRPfsofvt6JS5KJ2D1ym64+nVP9PeYhe3RKpinheFkvCWjn+/g7vHzuCu/h/NHopF4MxDn457j3vljuJlwDUcuxiP3znmcTrZDrz4S7PIchikrYiBr8BTn/E/jYXoAfpv6C9b8dQJPXGZgal8Jzi36DB9/+C12P9EJHersW/j7chKyY84iON6cnatGaqQH/Iapv6zBXyeewGXGVN2LQIqGY5dj46eFWD3QAfb9lkDebyTaSrNx6+/LSMqOwdnge8i6eQwhCTmIOXsWiZbssRMakxQTrdqQfax/bjdzAzGqodLLix0j9z10TzNpjsmrV6Lb1a/Rs78HZm2Phso8DWEnonDzWAgScmJw9mwi8OwuTh64iKQHl3DocDjuW+v3b6hrMgLOx6Hg5nHsicqAGkDdT5ZhswfBd6QjGrt64lybYXBLCUJIXB5izx3HrXtXcDwyBU9unkZY0cdYvvFTFK4eCAf7flgi74eRjrlacaSgda8+kOzyxLApKxAja4Cn5/xx9u4dBIXEIS/2HI7fuocrxyOR8uQmTl9i/X6NHNf3LYbX2pVYsNcKs7w80bT+KCzfPBrJC8fhm9//xP+ONsBcLw80yr2l1x9daqLvmIG4M6cPBk/djrTatpA9uIDjwQHM/l3S+V0TgZpqyI6licNk9vy691BnnNRZl3Fg/XLM+WEO5s6cgo9HTMAffz9G7VHsOa+zUKqztK51Q7hWFZZo19UV15d9Ca/LMnzMr7GhrrgVcB5xBTdxfE8UMtTPhK9Vnd1fW+3AhGr0ZDyzvnpYa50Ltc6ammzbC30ku+A5bApWxMjQ4Ok5+J99rH0CUFe/toe98xDHz9+F/N55HIlOxM3A84h7fg/nj91EwrUjuBifizvnTyM+H4wa+xI17gTgfFwBbh7fg6gMNbuNHpb6c3iAK2MNPAudiE1aYMqy39E6+HN0eGcU/rwBVC/OX82+YzDwzhz0GTwV29Nqw1b2ABcuJBvOm1rFWG9Y9yzeemJUDYWh6GN+7Q+HzV1jckTG3TuyBzPONW79jWz4vuEaYSC6V/51/AOV1yIVC5eApb0HIWleDHz6Gvsg0NuF6u5OLAtpjbF9aiD32XPkZcVj38FU/GfVd2hd3h+5ESk/VaDGuPjF6DU4Bb/d9EafNxPCv5Kq+U6HyGviH6i8FnkNcFCr1eAMvU/61lKE86sX4cDVODziasHGriGs5Vlo0LUfmosbjkqiCtSYigOnJsY7cyKvE3HT8a/CBE27j8Vn79uV+xdLRf4tKPAg/DyymrSDJPoM7ubxX/8nYI7ev2/HNw1D4T3rv/jvrNU4KxmAGWNd8eK3jEVeJ1WgxtRpuHIxG03aSXAzJJH/qshrRPx4RURERERERKRSEN/pEBEREREREakUxE0Hk7JsrWpkhazHIr/bBr8a9O+lou255UXXmPvW2Bzzk3Bm40rsN1oLWszLnqeFjgX4jaI7di8XlxpZ98IRGhKCkJAQhEYmIEcNAM+RfC0UISEhCLl0G+n6k9tI3tL6YlBuE61IpVFw/wK2/rENkZUjqa40/iGbDjWyM7Mr7oEghq1Vx6wnkZTjB2ZeNxXc9wpA3+5Zuegbc1/F5lhZ+VUjNSYA3ovW4izrB2AEednztGBYgF/ZJPmS6IwdIy7jkKKGbSM82vQ5+k7ciaxGjYq/GmmJBrYqBP7yByKq2aD2Sz7Y9HbWF4Nym2jfMl7B8Pum6r8EdRaSr+zFqsWBiCtX7Vd9/hGbDnVGIOYvPWPw58mNRZ2eCbdf/8I3bhbF/5CBwPlLcaYQAKSo020qZo1uy5AJVT4V3feKQGrTEYM6NX5jD6tKG7iiT3u7kuKW1umGqbNGo+1LDFjl5VcKm46D0KlxebP2sudpIW0A1z7tYfciYTr1XrnojB0/rnIgq9YY7Z3sYNbYBe521sW1aAKrhu3h3MEVndrUfumHRt/O+mIgtUHHQZ3wKqVTdVEjI3A+lr5MEb/B+i9BWgdOAzv/I79NVfUsswAAfUNmzScR2OmtbwJs1TIDm8Z7YuUNBWRKczTu2ArV0/UtkQpjjXt8W6uDCpd1zHousLizDzsjTNDBqQGkYFgAq0sZhkY10o2xL4JlNVQy7aBtEIalHrp9N0/mn6v795durM4wu7ObbQB1rAVpnr61Uc2yD76wYArYPWVl2THVqYjY6Y1VBx/ArocTFJd9sWrNSeQ6doGjVYawZVUL/fxLdIy5fLuovlXRFOkVkl81MqMOwf9EKKKuRiO7mgsc6koZ48kfkzD4bduLkxGJiL8SAZP+0zHEXq43B/gCR/Z5GuMy3xqp3aJ+bcpKLcBfdUPGSp7JVxarVwe6oegbNU3Ty6gT7TP1cgOdsTPRthPL9NcFfk5KIWSHbsWGBFd87dEZ1UsSUIQbJ0NQu18/2DwxLsby1pdenwRswXVzLparvgofXIK//zVIq8Vjz5rdiCiwhWvr2ngqZPF1rAUpsxaETLT648g3o+rnQmP71ZvfinRcOeSL8wUOoNB18Dl0D1bOLjCL8YPPxkDcr+0G10YWAn2qC0rTte/W7NQMT4/xxl7NMNI2kAFQ4wnf8NsoFYHGrGUMk2qr2uqXMm4bnSvN0UgPP4i9gSdwJkaF5q7NUF0dDf+VsWg73gG3NmzC8fSGeKetpj71asyamGvPS8Vj5NgBL2lh5xvgqgIsQyZHwibAHN+hVH+0P+UTsc2wEY+NM+4J2Fq1zXpc+jXaMq412Yw/QnIhA+ZzffteytMYI+yLSqbVMDxd2A6q3XfWudpGRGasCpYBNIyKWLlIeSJsHxS0exq2Y3JJK6hXE0/ShBBBP7d3o5lhcso0wkLK7JNKy5jLt4syrIpzg69WSH4pZx95fr6eUjmO0g7NpoWnCg2ewz09Rl8PnkIHHqlImbiBhjawp+mnCwXmgOHzWP2bp92ggBmy1ALMtzwz6kBHJckwas4NFq4T7TOZudG2HevGZSgnuqgo7s8uVK3PGnqkc1AO/fXdT3RBLmz21Ka89aXfpzJswVSO+uJSKdJnDDk07E4T5y6mVQs+I5eajWnc/gzimBbfMCpi1kKRgImWMY48MyozF0zbbwQ9jjlA09tbUedpm2jn4SO0YmQzavbhbFrje5AOLP6QmrabTZFFAn3ae5duaNt3py+gw7s9eWOfQk9u8myrQRla0Wobfhk1XNZaplP/L2fcNj5XUSQnFSVtn0wTVsdQPveI1g2qR92XxBLlb6fhNTvSlHW7KODAPOpr15u8klTsOnmqv/a8XDxGjp1S4F7LNzIzeIk3Ll8/LEOmWtAEqI2KbYZdfwUtjDDuCdlatZE2cMOgzk2L31plGzBbWurb93JqOhthXyxiWg1VlsbYQQ0ZEQViNWEZQAGwcpFTS9A+KGTPNcqOaSpDaQim0IRgjIVUqE8lB+jZRZlmTMuWFZBfACYWkFxeDI+ZWxHv/j1mvCczcA6HeN/FOGk/BkNsTSBr2gvdNVpQwTlg6DxW/3SMy+U2QzLqQPsEllHT1hhLpRH55FF2TvSRmkgZ7gk11JBCImj21I6xvPXF6pOwLVj3o3rWuVr5kDbCOwM6wK66K8bMnokZc3yx6gszBO0/j0KmxVegFuQxbBMtaxx1zKjsXLBtv+txpcUgdLU3h02Xsfh8+DBMHtEe+WYu8JwwEh9NGAqn9GSkqAX6dDAaLbXtu95z8GGvybyxz0EtF13b6pwP6mvFqw2jhstYy3R4KeN2eXLlg+DnMdi6Jh7OQ9vASmqLSdvDsWNiSwCAxKQp3vcYiw+Hj0Gfpo+ReF/BrhMFf+3RfsehPPEYOXYqgXst38jMoEpuOoQMmYYpywxr2LgnZGvlIykx8AlYAFUC9j2D9kWloNXQsB3UkBFRIFbBVVsgFwL2QSF7rlF2TEEMWUiN7JNW3oWMjK+eXwDVhmL1317o8XAtRrTriznnHhs4R4XEuCSo9LWgBuaA8HlC/Suh3GZIgTp4gZBRU6BOtE40kBt9ys4JHxNUq14NyHuGHF68z6gGakmFa1nr4HLWl1CfDNUxyjiXdxheDLUZ2rSxR1k/6cmsBfcMtolWaBxLr8bMhZDtt8Q8XPzvUhOtB21lUkhJN9d6feLZd9ljr2tbFUaghg2OP17SuF3OXCky8TTrCTI02mjI6jdHLfB/MU0GExM1VJyKXSc2/LUnXevccsZj1NiVda8tG0Oj9QYQMmSqBUyAgFQiAadUQp0nR8veZVgiy1ykhG2thWot6+0zDqVGTbYF8P5lYUNj2SGUYTUUOK+07wWwdRc4FxCMNRUCBlChXKjYgQjZc42xY0otrWAhz4ImhDgkZReiWEIq1O1iBPrEXzi08i5oVRRoyPj8AsgKxKE73fGrXyTC5tfHYb8I4fEEAMjQxrUVnp70x1mNFhRKpQKKIqE58OIGI3ReGf0rxhh7qI7l+cklgTooPlbQqCmQ0BLKqHUmQjlRIDP6HKIYX7+o815XtLl/EecelL5WeOcIblbrovnr3mCM5a0v4T4JtVSu+gJAhYXQiFmVSErORdd+XWEhYPFl1kJYU7aJVnAcX8DOhZDt16B5WAtmn3TWSqGxV5WxoGoZfjNOYw2zhgXO1a7/wnYvYdwuZ65qOONdt1TsmL8WEVkK5Nz4CxuOpQLEyp9AjT3grz2ve+zKZ2TWpgpuOmRsQ+ZjYROgZbuucL2+DF96XYbsI5YlsgbijDHuMW2tZ/FYy3obmnITx0ISkBNzFmcTC5kGTFcnhqExKAQnjLAvZg9mWA1VwnZQnb5/zDi3xIgoYOuUsQ2gFx42Z+TiKC4cZ9sHH9kK2D2zPzBsx6zZF2MG3sGcPoMxdXsaatvK8ODCBUTfYFtWSy2k7D455mkZc++l6FpgWUZGt5QKyC+gVqUj4Lep+GXNXzjxxAUzpvY1YKk0QfPJq7Gy21V83bM/PGZtR7TKHGlhZyDrwp4DZZ93EvFMa29pkLLWjNo8fUfLAhyva3kuaM2oA217J8uo6SZsqdR6x56Vm24K7bF7oBVXMntdePgIh+ZOwM/7EkovXIys3Q/YusQBgRNHYcL0Gfh62iRM32KFqT+8D3OUYXQtibH89cXqk5At+FKKolz1BQCQX8e+xV5Yu3IB9lrNgpdnU0gFLL4X8obr10IvJwETbTZjHLXNqOxcCNl+a8Qdx/m7ctw7fwTRiTcReD4Oz++dx7GbCbh25CLic+/g/Ol4aGSzvD59WQN3dOy7rHuCHwLPBeraVnXQMvxGNsT7ejUsvJbpmKxz676Ecbt8ubKVNcTY5RvxaeFqDHSwR78lcvQbbovbgRdwtyAOF4NuIjYqSBPfmcsoGKlfJ93M9deel43H2LGzMMbIzED8GXQRERGRtwAuYSl6D0rCvBgfvCExa4XzT+yTSNkY2pSIiIiIiFQFODXUau4N/crva+Kf2CeRMhE3HSIiIiJVHcUDhJ/PQpN2EkSfuav3mOFbyT+xTyIGET9eEREREREREakUxHc6RERERERERCqFqr/pqACDZkXyctbLt43XbeksJwX3cWHrH9j2irrFN2nUrCgT6evsQ5Wo7So23988b9rYXAGonyD6VCAuJRn62aiKmydMnicgeMMS7I5WadY40Rb+Rqjim44KMGhWJC9tvXzbeL2WzvKhRlbyFexdtRiBr6JbNNao+QpmyrJ5FRNpMcb24WWoErVdxeZ7FeBNG5srAu7+LsyeHwpFrWKBZplUwDxhokZGwkXsWuGFky8K/FVs4a9tnfjnU8U3HRVg0KxIXsF6+bbxOi2d5UOKOk4D0flVdYtGGTVfwUxpgFcxkZZgVB9ekipR21VsvlcB3rSxuSJ4ntIQE3f+D71q81/Rp0LmCRMpGrj2QfuSAn8VW/jrWyf+DVRRy2z5DJrEsv0xjpMwbJh8iyLLwKlNiY3TaOulfpumGUYYb/EAl/z9cU1aDfF71mB3RAFsXVujrqkCaZEHsPViLqzj/LDlRk30cKmm14Y1ZSLqkD9OhEbhanQ2qrk4oK7UmHhfYNjS2YxLY9oz+RZYcOkIP7gXgSfOIEbVHK7NqkMKFdPcqDmcb0NUI9p/JWLbjofDrQ3YdDwdDd9pq2mHOc46jQsYNfmmxrYwu7pM10zZyhzJ/LwqeWZLq6YoCt1u0MhYqG0iVQnnjV1/Qn0QzmEJalYdsM/TrW2wDZTa1y5k1WhLKK6VYT1lzAdrifB817dp6o4u0/SpVxOmSNebMw10rqNfc69i4AQeXPKH/zUpqsXvwZrdESiwdUXruqZQGGNPlWnmTLmNzQCAQsG2ITDn9GNygUbW+ioGaDVSi+23T7pNw0fW4Vp1YIUMhtXZqb6p7jyRlmNcdHIAzZzhW1sluQjfvgVp783ACEcVHlzy17KFM+pSyZqnbYAwnsGWtU685Bso/wr4BriqQPkMmk/1bX/M4woNWhSFDJzalM96yTA3zj1thPE2nB5E+tAYh4bUfeJcWrxqAX3mUpMaj9tPaU9u0t6pbmTdzoNWrPiVpi8I1G9jXiTl7POkz9enEsel0aHZC+lUoTHxamPA0lnEGWWBJVUSbZ88gVbH5BP3aB0NqtedlsQqBMyNAjZEVT5tH16TOk5ZR7sCDtC8vnbU2yuJVMxx1ta+cgJGTSGjp7aZkjF288IpU8dsOY1mr/M1bGQs0jaRlpE3Zv0J9UHIfqnVfSJGHQifp2OaNWgH5ihVoEYzlALWU2ZOIwXnO3uMdHpn1NyfG3yNN2eCtC/CrrlXMHCGP4gknzEO1LD7RJq7eBUt+MyFajYeR/vTntBNg/bUh8S9irE5VaDtDCV73PMz9WIKyiid8K9igCYB+608U8CareAZe40eF90ckJC1lUshr952NP6InGcLZ9VleBl9NLRO8O4rIjq80TdT2ZTXoKnQs/0xj5NHG7Aolt/AadB6yTI32lrA2aDx9iHqvTMAHeyqw3XMbMycMQe+q76AWdB+XLRyweCu9jBz6I/J3/0O758d9NuwUcDEQoLLiz0wc2s83L+fgffMjYiXR5mWTqMssIAqZivWxDtjaBsrSG0nYXv4DkxsflfA3PicaUNsaQJAYoKm73tg7IfDMaZPUzxOvA8Fa5y1NaVcPNuoacjoCYGxs1Ghjo7Z0gf/+8+nho2Mam0TaRl5Y9WfUqAPgvZL3bd89erAxLjzDNuBpWgkUKPnC9nWU3ZO5QLz3YgxgolRc9/WsoXunJnzgdY1Kt7A+bDeOxjQwQ7VXcdg9swZmOO7Cl+YBWH/RSu4GLSnZkH5CsZmaSOBts9cY4/7Gf2YPqivdVt4aQP0i+P160BaR8CarTNPyjMuPGu1Stja+gIdWzizLlXG9ZF57qs98P5PpwpuOspr0LTRs/0xj+uoMGBRRLkNnGzzoRaC5kZjjLfFFL9k1qYN7KH55T6JRAKJRFo8YdhtVBu6Gn979cDDtSPQru8cnEtXG45XByMsnQYtsACX+RRZTzKgESjKUF+jNxQwNyqYNkS+1VNmYgK1ioOKNc7aWk5VItuoaYzRUyCvLLOlYSNjsdGy5AWBvLHqT6gPgvZL3ccN9ergsVDudc8rlx2YUaNMmDl1F5jvRowRqhk394stwiVzRofXYeB88Q8liUGJENYIe2rFGJt5bSvShMedF5NxCNSwkQhanbWMveUdlxI4Y6ytWuPIrMsXc730eGYfBc8VEaJcZVY5lNeg+UDP9sc8LqKJAYuikQbOEsowH76gLHNjmTf8YqgQhRr9IpRJycjt2g9dLaBrABRoIyvwEO50/xV+kWGYX/8w/EKeC8T7KpZOYXvmC0yd34Vb6g7MXxuBLEUObvy1Acey2guYG2swbYipamKmiznO2lpOWRu2UVPI1JivZaYssIU7I68Aa+zK3py+QPs01vHM+lPaw4nVB/MOAjnUdTzq1UGki1HnGWMHBgRq1IptPWXXapjAfBcaI+3Gs4yb+8WaZlbOX4+BEwAIhYUFmuOUSUjO7Yp+mslr0J6qtHd6aWOzBkbb779X5rjrlXQxL2+ABiBgvwXKPlkTy8uMSzGmAtZWPYrHkVmXmrnODtOIdUKdiehzURX/LbN/AvzPW6oE8hjyndCZWjr1oXE//ESfuLemoXMDKC5fRSmBs2hA6zpUo15rGvjLcXqsTKdNo93p49mrafPaOfTdsgtExDiOI1KlBNKsAa2pTo161HrgL3T8se4TDVxGAH3VrjE5DZxMc5dMo67NetIPRxKo5GNkLouiN31Kza3c6dvAu5QR8BW1a+xEAyfPpSXTulKznj/QkQSdD50ZbT6j2P1TyNmiLU3cfYMSov1ososluU7dS9HxV2mrR2uybP8VBcRG05LudemdcfNp5ZoV9MuMX+lAgpK47BjaM9GJzFt9QZsj04ljtqGk9E2jyf3j2bR681qa890yupDNseONS6RNw5tTP6+7OnFryKebW/9Dg/oMpy+nfU1f/WciTfh2PUXkaF7Nub2bJjhakNu0/RRzN5xWj2pKtXrMpjP3i7SuoaTEA99Sr2a1qKatO431jqI8IuJSj9Ocob1pxIzf6I9ff6RFR1M0z5coE+nAt72oWa2aZOs+lryjnlHOrT00sY0Fuf5nH0XfCaNVo5pSrR6/0NmUQuY4ayOP8aUJnVuSU59x9MNPn5B766E0NyCOSJVCgbMGUOs6Nahe64H0y/HHxJGSrv7xPtm3H0W/B6VQESOv2TF7aKKTObX6YjNFpnOUF7ufpjhbUNuJu+lGQjT5TXYhS9eptDc6nq5u9aDWlu3pq8ORdHnTGLK3dqdvgxIE8xZ89QCz/vIE+iCYwxI4Rh0I5F6ntuM0z2wcn0NDe4+gGb/9Qb/+uIiOpvCSq4pn1iiRipJ2fEGOTdrRBxMX0eqvu5PTqIV0KqmIUauc8HzPZY2RFpxxc/9hpv6c0UGv5vIE+2/UeAfEUvSS7lT3nXE0f+UaWvHLDPr1QAIpuWyK2TORnMxb0RebIymdE5iTCXkU4zuBOrd0oj7jfqCfPnGn1kPnUkBcHjMmXVQUz2pbaM7pxcS/XBLt+MKRmrT7gCYuWk1fd3eiUQtP0Y3r7BrWnfsCdXDjOu2e4EgWbtNof8xdCl89iprW6kGzg2/Qda15Up5x4aNMPEDf9mpGtWrakvtYb4rK4ygrehN92tyK3L8NpLv3r9OmMfZk7f4tBSXkM+tSaJ6euZ9vYJ3giEvZRMOb9yOvuzpPuYgQkfgz6FUVLgFLew9C0rwY+Ij6RZGqiFijAnBIWNobg5LmIcanL+ObFa+TN9m2iIhhquDHKyIaOKjVas3nwCIiVRKxRoXg1Gqo31Bi3mTbIiKGEDcdVRIFHoSfR1aTdpBEn8Fd/WegRETeMGKNCqF4EI7zWU3QThKNM5WcmDfZtoiIMYgfr4iIiIiIiIhUCuI7HSIiIiIiIiKVgrjpEBEREREREakUquCmowiPb17S6NN1/gvF9fuaL+lXCQW3EOoshKxfBL/X4mZ+wZvSMnPIvhWItSsO4J7e989ZManx5MbfOHr5PsTf6NOmnLpyHSX3cyQEb8CS3dHGnVuF4LJvIXDtChzQLx4jePP9NqRdN/S6CAvdcX07c1jO+VwBFNy/gK1/bEPkW7iwVsFNhynqNq6OS3M/wKcro/C8sBCFhXI8iz+IldtuQFElFNxlI5FI8bLGZKMpt5ZZjezM7DJ/9twgXAYSL+7ByvXn8ZiVe35MXCL++vl/iFDXqiQj7dtB+XTlukpudUYCLu5aAa+TyZW2wFUMHDISL2LPyvU4zyyesqka/TakXTf0uggf/XF9+3JYvvlcAaizkHxlL1YtDkTcm5sML00V3HRIYV67Fdo2qwFL23bo3a8f+vXrjyFf/oZZoxrBpEoouMtAWgfdps7C6Ip3M2tRfi2zOiMQ85eewSvJmE1s0L6XCxoyVwRGTHkPYDd1B+Z1q6l76L+c8unKdZXc0gau6NPeripOXAOYwKZ9L7iwi8cgVaHfhrTrhl4X0Yc/rm9jDss3nysAaR04DeyM5pXWYMVSsWp7VQr+Xv4Tfl66HRfSG6BDp+ao9lKrhAr3Albjb7OP8N/B9pCBQ/LFSEg7tEddKUPBrYXxKmQF0gT0ykwtspSvQneGnTUhM+oQ/E+EIupqNLKrucDB+hEu+e9EhEkHODWQgq2TLqPtvNs4snUXgoLP4Xq+LVxb1oZMwdOp13RFzfgDWlpmVhulOVE/uYilHp5YeUMBmdIcjTu2giyWr1BXI/3KIfieL4ADhWKdzyHcs3KGi1kM/Hw2IvB+bbi5NoLZ0xBs88tDl95FCFi3Dze4pnBzqA1ZsVJbRxUdEoqIqHO4XKx7Nk2PxP5toVA1ycepNRtwIqMhOjjVR4kNWxOtfk7rShm559289HTm1lCmCbfHqhN9rbwaaQwluiLlPPYFXEZU2DWkSWRQFALVa6tx7whDUa6NkK6cpdXW7h5pK7lNkBu+HVvS3sOMEY6QgV+XbWEasw1LV+zA2SQrOHZoBmnCUfisOY68Fp3Q4FGgUX0sJQ+3jehX+MG9CDxxBjGq5nBtVh1SVh3TU4Rs80Nel94oCliHfTc4NHVz0FyPOUe1IV6/WXGxa+cFLIV7tRTjc2eXG1aqXUcmog7540RoFK5GZ6OaiwOsH+lq2Zl9UrB06cVKeEYNU2YUDvmfQGjUVURnV0N7h7o6WQHUyLp+AJu37kfwzXSkxz2Aae0sBPmswsEHdujhpMBl31VYczIXjl0cUUtqoNZeav4pGDVUjdEOa8x0x1WlrbaXX8bG+RsRFBGOSyHncDIgEFdUzujW6KFebanLmOva6M9xvWJmrP2suMuYz6za57fCWH+Y9SIUkzoa/itj0Xa8A25t2ITj6Q3xTtvi/jLq6OW2+q8J/k+UvjxKur6gE1lKQAAIkhrUZ1Uc/yAjkVPABBuq130qLVy0iBbOmUjv95lDEcW/MK6j4NaiPCrkfCG9soqtRWZqtp/uI8/P11Mqx1Haodm08FQBpV/bQuNa29B4jR+cqZOOeCTUtpyOTWxBQzdlEJexg0Y1HkDeD5U8nfp0+m33aS0tM7sNPcW571CqP9qf8omIGAr1lKcxdGB6e7LqPI027TxMR1aMpGbNPqTZa3zp4IHF9GHTdjQ7UkmqO4uoi213mvTbclr1+1hyq92MPPZnkNKQKnpuMEXvmUTO1d3J408f2rX9J+rZqCcti+P9THAOP6dGKM4ZOvN54emC7THr5DkjJ09u6ivRc4JoWqcxtDODI3n4LHKr9R5N3xpKSYET9RXlWiGSkK6clSu+GltLyU3EUYpXb7Ibf4T+v70zDYzpfPvwL5ORFUGtQSKIkEiCWCO1b7VXF4qmllJUF23/iipKS9GqpiSIrfZIYgnR2qmoLNaIkiKJaFZZRbaZOXO/HybLzDnPmZlEpNH3XJ9ac57tvu/nOSeZyVyFROzYFGdQ0GQ78lhyU/MV/hmBtHxNOBWy8s5aoxaFoQbWpYqnXTOmkk9MPnFJfjSsoRetufeMUccckeourexlS17vf0M//rycJrrVJ3vvIEpXsveobgnrrps5L0btlDcXKtyPRW4zPnacrnY9J3AaTdqUQhyXSocXfUunC3RfJ6aGPpKSxHTprBqOyqDAaZNoUwpHXOphWvTtaa14EBFxlBryCb0x7xglKpWUFDCJ7FvPobNFHMWv60ctpx0njZF+IXVym0/hxUbUGiOGzBrT2n9cJr+GjjHHYeZMO6+8GHNpgbQ1MJ044igjdBY5O06mg0n5wtpKfCK613Vg1P8/usXMPPuZ8xbdz6wzXPdr2pnnj8h9qlBkTpS/i8bYdKWZfnspJHgpDWzen9bHq9hnoc5h+e9Tqd9DsHmGa+HRKCz91g/Kw/UrN3nXVAQT2HQajy8WLsRXK9bjm7cdBE+LulRMhXzOSkSvXMTSIjuwNdsKC5hcWQ3v+TvwwONzfNzTEo3dhqG7xs0sqh/fdN2RPbbKDJ3f34DF/TJwOvQO8pCFJ1ng6dQ3Ysk7/cq1zCJj8FXlOjAU6jk2Lhjm6QDzZr0wcdIYjJ4xFp3yzdBx2lS8Pm4qRjqnISGx5F3X2p0x6cvP8PHXO7Bttg1CAy9AYUgVbWsJ12G90MqiDUZ8NBsTJ76HoQ6pSPiH96akKT+mcnbstQ32DJ15M5XYeEXMOmlryYhJvY4CJbrqwWVcyW2E5nVlsHDrDjdLU9h79YCdx/sCRbn252c4EV05M1ZGq7FF9O/Fr2DU3HegDNiGsCIOj449QPM3u8KClXfGGrUx66x/XaqYHfjlgQtGtreCzPZ97IrYjeltLRl1XNLKpDY6T/oSn338NXZsmw2b0ECcvcHeo/pLmDEvQe1o/a5E1oCncF+I1qd2Gh87mbZ2HTC1MMGV1d6Yv+MBPD7/GD0tdV9na+g34bojW5dezKphhQIWJlew2ns+djzwwOcf9yxfDzS1s31NJNymDUNLuRxNuriiZcmv3GvJTct/uq0l1/zq35haE8TQ8P6TNeDV0MLWzHGYOdMemxdjWeM3Mf3NRkDiAXz48WUM9PXBW7YWwtrKqSey13lnC6P+S8sSAKBinf1tmfNWiu1nsM5wnUGY54/YferMM/acAMDE1A59vSdi1JgJGGCXjLhHHPss1E5WDaAKHzpqo0efbqhdWumyeujVryvvmspSG70nj4ezSTGKRT84U3EVMlOvzNQi57A1281Gwufkerz6zwaMdR+IxRfSSnTIJf3q0Y8zx4YahYmn4OsXiYZDR6DcPq9Hp65nDFFYCnVoPghabhg31fowrBwyGQm1zjBDa4cWMC1xMRpURWspwYFaMDXV1oCXUJsf02R27LUU52I6c/Z47DrJU7FjwleiyzuOxhtNo3DwVCJSIsKR5jEeI1qZMhXl2ojpykVjZRTi+nezrjMwxTYEm4LDcCzdEWMcTEXzzl+jNobWxWVmIOtJOjTbRY5GmmCK1LEuZq0d0MIU4FLF96gYzHkJaidNt5GOwr2CsStrr/nP2iN9cHL9q/hnw1i4D1yMC2lqndfFNfRsXTq7hpthpM9JrH/1H2wY646Biy+UNwQA1SPEPVYb/4FyY2pNEEPD+w/8GhIZh5kzPtpnEACo7sJ35iIkTPLHqkH1AbEzkrnXtfqBnnOvFObZn8ect+h+FptfGezzR/Q+pWDPSRc5TE3VUHEkUke8ZP3LsM6ZSiKHy+eBOLHhM7w3cSrmb/4Nu2e04l9kPKSrM5dbmyNhz3ac5se7jEqokBk1z9YiZ7I124+P4fBdL3x9IArhyxrhyAGe+lyffpw1tiICG785i2ZvvwMPqzzkFhFIUYgiFcs9XbJh9I2hhczEBJxSCXVeDp78yVCoFxaBOYxeCnAzOheDxvZFibTbgCraiM6z+DGNZMdeS3GuT2cuhF0nj66IxYR3MMkbw2nI6+hr+RduyabgwJGP4CJnK8oLi8qfkOXtXZm6cvFYGYMe/bupAybP6IHLi5chu/treAWAIsLINZZheF21XHrALWU3lm2IRJYiB7d+3YzQR1fE61iLgpvRyB00FoN66tmjTETmlXyEvR+1KK/visWO3z7r2GHc9foaB6LCsazRERwI0/zGoHzri6+JFWt2DT/GscN34fX1AUSFL0OjIwd0G8kd0aFVLIK2nEeaWo2njx6X/OQug6WVBQqzMlEADmn345FdpIDCmFqrxP7ToFVDzHHOs3PGLwqdHBUg8rvp+EE9D9u/6gFr7jFuRIWK1BYrqrqI138JzLP/EXPeSgdn9n7Wd4ZrBmGeP6L3qbqsOaVo7o+lXWrBrqN8qDOjceFqMv/yf4Wq/SCprDbsuw3F2DfGYHCXFrAy8gFclyI8CtsP/21BCE9SwuTpA0T+GYazB77Hqr+6Y9GEFngYtAl+h+/BwmMAhrVrUNLOBLVduqNtcjCWf7EQ644/Qa9P/ofhju7o7fwEu1dtRsSjBETGWGPS0g/hYXIPh/19EXjbBG59HJF/eje2hsajTu8x+Hi8B5KDl+OLhetw/EkvfPK/4Wjj3hPtM0Owev4CfPfrdTR890t4t7yBVTPX42ZxPtKemMBj/HtonxuCTX5HcM+8Gwb1cYNnP2c82b0KmyMeISEyBtaTluLDtik4whx7NLyKj+L79cdwL7c25GkXEfXUCd2a3UGgfyCi8u3Qy6sTmhbfxsFNfjhyzxzdBg3FqJHuwjE86ul8eMiUHuGkjz9OFTthwBA7pOz9HuuP3UNubTnSLkbhaSsHFF7Yi8AbHNq/2hG4vBf+gbegdvFCB8V57N5yCHfkHhg80BlmsSEIPHcfj/8Kw9/2c/HNu06wyI7WmdPo11yRGbIa8xd8h1+vN8S7X74O5emt8A28DRO3PnDMP43dW0MRX8cTA191gE3JD5PqvEtYqRPTqRg4rJ8g9lOc65Svz6oDerbPRMjq+Vjw3a+43vBdfDmlOf454s8YrzfGzBoPjzTdOhnRFojdrRuT3JYt8fTCfgRH5cOulxc62VqDMn/DtzOWYm/YNYRf+B1HQi4h+ZUeGNgyGXu+X49j93JRW56Gi1FP0WHgIDjV1zzXy+q5o2uT29i06FsEXH2EjKQ43M+xQpvu/TB2OD9WU9C2TvlPTtkxQdjkdxj3LDzQz0WBc9v9cPieBTwGeKFT7z4isTGBdZuGSLoqx/h5A9FEBphYKoxaY3ndmMBSEYvdetZlUtsF3dsmI3j5F1i47jie9PoE/9MEk1fHHTBwsAsaFcQgJPAc7j/+C2F/22PuN+/CqaEze4/WK5+JOjsGQZtK1/0q3GvHC+bl1NMcwfN9dGrH017zOAx1Du4c8sfmwCjk2/WCVydbNHIW7mmx2EGdheiDm+B35B7Muw1A7xQ/zFx/E8X5aXhi4oHx73VEbkjp64MwzM2Tuaa2KUfg7xuI2yZu6OOYj9O7tyI0vg48R83EhB45ujXs3RI3Vs3E+pvFyE97AhOP8RjqaV8WE8gawLWjNcLWfYrFW67gadO6SLkGDJwzAk6N1IhZ/xXWnrgLrlldpF5PQi3nfvhgYk89tVa5/afOuYND/psRWFZDjeDcs71gHFezv4U569oUtw9s1uS1nzOKzmwvi6FX8hqMmhsFl7e9IL9/DVdCtyE0+zUMrRvCqy072OddwN4g/l7XPVtY9f+0w0AMcqqv+enbpDZcurflnf0j0BrCPeA87jNMan9HuJ979EWrJweEtT/ICZotU8H7VP06wjl93hs5of7wDboNmasX2uafxp6toYiv2xuDhr2GIc78s7A9cvfPwtifC/CpN+8tun8Byb0iIVEBVLF78ENYO0wcUBdPc58hL+sBAg+lYNbP89DuJf0TNon/BtyD1eg3PBHf3N6IAZLTXqKGUoVvr0hI/NcpxkWflQi+fh9JXD00a94E1oVZaOw56KX9m3mJ/xAqDpyanu8LACUkXjDSQ4eEhNGYo//yXfikyWVsXPAhPlzgg/MmQ/DxRFfpG1cl/l3Uqbh2KRst3U1wOyyO/6qERI1BentFQkJCQkJColqQftMhISEhISEhUS3U+IeO4qwExNyIxsPMYkCdh+wcPX+8r0V+/Dls+SkI94R/kVX1GDTLsgysQMHDMIScidH9gpoK8nJaGdnxECU/Hue2/ISgakmmYfTlTafuDNbFy8nLWXMvH1xSJI6fuIZUxpEn5eD5qdZ7hMEzT+T1gocICzmDGNZh85JSYx861Ol/YO2UcZi5LhR3EuMQefBHfOY9Ah/uSTL8QSl1CmJCNmLlhvNIZmzYF4FBsyzfwIp8nFn1OfanWMOmollQZyMzuzQKL5+VEWDFQww1UmJCsHHlBpyvrmTqRU/eGHVnsC5eSl7OmlNnZ6Js27wAqrZ/Ba5unI+NsbVQr/RDyjV431ft2qsBxl594Rg68xiv559Zhc/3p8BacNi8xPC/F71GUHyLVvdtSf3X3dX4D0oovPk9fbgmWuffxFDdW0W9HefQWS39Qo1CGU1B+6Moj//vBuEo7cjH9GVQPv+F/y6qe7SqtyPNqQnJNJC3Gl93/1/h0ujIx1/SC9s2Vd0/l0ih+89QWpm2owbv+6peezVR8/eqkqKD9lOU2GHzklK1Xw5WRZbZ3KNfYPLWpli0Yw7cS77bBwDkTd3h1ESO+g3qIJ9pC+SQFn4AOw+eQmTcA1yLNMXgOSPgUGjI+meEJbFDLcTsXIt1u88j3soJXexleHjcF7/8loc2rma4E1hqlgXD0qjgGVhVSIk4j6t3b+KSMebZMtR4cmktvKf9hFsKOZTmLdDR4i4CtcyWQhukUk+/hoyTYFtv1ULD5isycdOt0KjIiwdrDABcWjgO7DyIU5FxeHAtEqaD52CEg1yPjVGDOiUSezayLJsOKLomFgseLHMqM28QrzvVY13jsCIRFwNDcOVqOG6kmkCu0dPCGvrXU4o66yaCt+5A0JnbSEu7j8e16iPrhC9+PvQYzV91huLKdvz8yyk8deoFp3oyw7ZJZh4N10SRlgm0Xroeu6cghuZIN7TPXJqjVvo1HN5+EQWtCZf9fHH4byu4dDRDzAFfbDn2CPXdXNHUAsz6ZZqM2wPha70x7adbUMiVMG/RFY7ye8ya04ZvJG1ddJ1dVz0a4PaPvP7rpAlzqkjDtcPbcbGgNeiyH3wP/w0rl44wizkA3y3H8Ki+G1ybWmjMviHBiEyMQ9StfNi6tobqiv59L4w12/SrTjMytozaYVqbWbE1TxC01Smhosf4MyAAN2S18WD/L9gXWQBb13Z4pRbYe1tg2e6Gjo11syU8Y1jWaD33CLmISbYM1j2icQUMz64wuxNYduZBYA+25t0jAFVKBM5fvYubl64j+5UOcGpkDgUrBwybbtXbhwG1YM6vMOuEfwsRwH8KqTxVZZktpsuftyNz10W6JlFtmLZAjjJCP6LhM4MpSaWkuM0jqbHDHDpbZNj6Z6wlkcsIosl2HrTkpmZiGYHLaU14vq5ZlmFp5HQMrGwrrLh5VmeqRJRD20c2orcD8ol4VkaWDTIiTaxfI4yTIsZEgWGziL2mq4Vso+JfydrxYI/BZYTSR8NnUnCSipRxm2lkYwfNbzqY9k6hkZRl2fwzRSwWOo1FzKkKkTWK1R3HMw7n0InZ3WjCnnTiCiNogVs96jlnB11OemzEeoi41BD65I15dCxRScqkAJpk35rmnC0iLn4d9Ws5jY5rFkoLO7nR/PBio2yTwjwaURPaNZefKW73ZMTw+/CbhvfZkrMUEzyHOll1p9n+e+jI0XX0ur09jVr0C20/FEyrR9mR+6IoUrLsvPpMxjnbaWSjtylAo1lm1pwOImcMq67Ci0m3f2aNRlJyTDDN6WRF3Wf7054jR2nd6/ZkP2oR/bL9EAWvHkV27pozj2k11bPvWbFmmn4TM4yLLat29FibddbOaqtTdxylRPnShNZNyGv6Elr98wp6p6MNtXhXzDYcSUk8y/aKE+la/bHPGJY1WvweIRbzcoT3iBPM81bMUpyvcw/IEdiDde8RRFxSAE0bvZAu5XBUdG8zjXHqQysjk8RzoMMLsA8z5mw412wq8XsIMarOMkuaxxZxWLZA5QNsX30KDhNGwNZUDrt+XnCUwwjrn/GWRNkrozD3HSUCtoWhiHuEYw+a482uVrpmWYGl0RwybQOriBVW3DyrM1VddKyMbOOoylLEpltshHFSJHYCw6Ype02+Z54xjYrtmmnFgzmGEg+2r8YphwkYYWsKuV0/eGmSKWLvFBpJWZZNWQORWPBizDSntoplr/HkHZG6k/GMww9w+UouGjWvC5mFG7q7WcLU3gseWduNWA+H2O1rEOk2DcNayiFv0gWu5TpRmJYvFPKSfzbGNinIo9yImtCuOVkDUbsnK4Yzurob3me2FnAZ5gkH82boNXESxoyegbGd8mHWcRqmvj4OU0c6Iy0hESqWMdVYkzGz5ngfSGCdMWp2XfFh1+gmXGszDJ4O5mjWayImjRmNGWM7Id+sI6ZNfR3jpo6Ec1oCElUiBl3tAXg2VlasmabfHBujYss03opam3Vja7juZGjaeQi6NK8D1wmLMP/jxdj+82SYnQjCOaZteBOut9W1bC9+rZFWf2xrK8saLX6PMBxzwT1i8RDmeStmKbbSvgfAVGAP1rlHQIW/tv6IMLsh6GYjg7nTe/h44GNs3HQdjkbk4IXYhxlzNpxrNlX40FFVllkzuPT0gM3jW7iVKfxkEsdxbFugKg7341XlhkIZSoJryPqnwRhLImCGrjOmwDZkE4LDjiHdcQw0Akots6zA0qgxXRpjhWWbZw1QZmUUt2Yy+xVdozbs2AkMm8lJImtSMI2KeWqteDDHUCHufjxUwmTqsXeW/IMBmLHQvgAi5tQckTU+fShSd9CtC3lHjH6jKaIOnkJiSgTC0zwwfkQrwKj1qPAo7jHUFfjgoDG2SWEeM42oCe2aK/nvshfK7Z7MGOapjdxnWnGDDKZaH66Ty2QgffUrMh9dWDXHv4RxxvAuEUNfjZbXPSAz1cqnXAYZaebKspoK0DbaMmMtZvo1HFulWO0YEVtj6q6Mks7M2reHAzgoRG3DmjlrW7bLYVtbmdZo0XuEcTHXtTGLn7diluLy3Ndm2oPLX+eQkpyGgvLDBi1aNkXh02fgjMjBC7EPM+ZcoVxrwcpiJak6y2y9MQswv8s1/Pj1MZ1PFhfcO4a95x6jkGULVDrA2TEDpwLOI1MNQKGEUqFAsUHrXymGLIkaG6Opw2TM6HEZi5dlo/trWv7Jcv2kiOnSCCussM4ZyGBiwkGpVCMvJxdc2dB6rJmsfvWssQyR2CUf4Rk2ozqKrKku06iYokZ5PJhjKOHg7IiMUwE4r0kmlEoFFMX67Z3liFg2NcMahGlOzerEXmM/N7iy6q60s7LDS47GTkPwel9L/HVLhikHjuAjF7mR65HDsUMrxAZtwfk0NdRPH+FxyU/mMksrWBRmIbMA4NLuIz67CAqFuG1SG4EpNbK14ZooofxMZgeUGcMUtdH7jHXo6yDaVqSdzAQmnBJKdR5ynvzJqDndM4FtJFWgllhdafVf2La/npwaengRMegWqUX2vUis9Zl+DcRWvHZE2mmtvcDWQ6QtDypCUYGmP2V8Ap56DkJffbZh0Tmzra1Ma7TYPUI05vybhHbu9Jy3opbi0vZZIvbg0tfN0WVgb9ClE9CEQoXUNA79RvSBpVgOtHkR9mHGnMXrRD9V+0HSKrHMAjBtgp6j+8H8jx+x5KdgXLp2HdevXUcsuuKdkU6wZNkCncfhs0ntcWfTInwbcBWPMpIQdz8HVm37wZOO67H+GW9JbFvHBDCxRpuGSbgqH495A5tABjWyog+WmWUHdE6B34e6lsaedf42bIUVM896DsRABxvt4IAenYSP/ykUO3aGzfW92FxiZXx99GtCG2Tzf0T6HYW5E3qw11iKiSUUAluoE3qaB2O+j5Zhc+pQDB3IsOl61EcdhlFxmNW98ngMHgK7dL6V0RnjPpuE9nc2YdG3Abj6KANJcfeRY9UG3fuNwSh3ho1Ry0gKAGYNGJZN+wbIOL2HEQvdGDPNqcMd4d6bscaurdCpaxPc5tddm65wLz5Tbhz2qo/w1TOwdG8YroVfwO9HQnAp+RV0HzQSw1wMrUeGBq4dYR22Dp8u3oIrT5uirkYnihFOjaCOWY+v1p7AXa4Z6qZeR1ItZ3TvPwLDXPi2SWeUp1eNvEsrdU2pU4diWD+Rui9rpm1b7QH724EMk68nBg0bicFOujH83DMXxw3uszfBnfeH78Eb4Nq/io64jL3+gbildoFXBwXO796CQ3fk8Bg0DGOHuxlvMu7bCjlnfOB/qhhOA4bALmWv3jNBzEg6vJcN/uLXlXN39HG0waOTJf0Pn4H3emUIcuqUdgxbfA/iBtceGpGzPwJvqeHi1QGK87ux5dAdyD0GY2irJwgQmH2HoN3T08x9/1onL2G9Mk2/reBQeAF7Aw3EdtQseHvmGWlt5sV2+ExM7pGtp+4AUDb+3OmHM8lKFCbdwO+XOLy17FP0bOHCMK3ORpukw/DfXG7ZttX5hCPb2sqyRoveI9r0wGutnghMsto2ZeE9whrWHYy3FKuztCzcAzojxe9DHXvw4Pa5WveIPnDz7AfnJ7uxanMEHiVEIsZ6EpZ+2BYpYjnQsum+CPsw1Hm4tJJnPB44jGH35uWagfQ16BIS1YEqFnt+CEO7iQNQ92kunuVl4UHgIaTM+hnzKqqn5R5gdb/hSPzmNjZKOlGJlw3uIdb2H4b4pTHwHSjV74umptmHq/DtFQkJCTGKL/pg5aGbeJiiRn3blmhiXYisxp4YVCk9rQocpwbx38uVkHgp4KBWq8Hx372QeDHUMPuw9NAhIVENmPdfjl0fN8KlX77EnDnz4XPeBEM+ngjXCutp1Ui9HoZsO3eY3A5DXAH/dQmJmowCjyMuIsvOHSbR5xCbx39dokpRp+J6WDbsapB9WHp7RUJCQkJCQqJakH7TISEhISEhIVEt1MiHjvy4c/BfsR0R/O8neWEU4PGtywgLC0NY2GVc/jMcV28/QFp+Nb0L9uwBTvr+gIN3q+NNTjUy/9iIFfvuaP7UTwD79YIHF3Ho92jNn5pVF9UaF+PgsmJw9Oc1OBhr5BeDVAh27CtLpfdRfhzO+a/A9go31KIq+qgquCzEHP0Zaw7Gar7LQRt1Jv7YuAL77lRmns/w4KQvfjh4V8QcykCdjVtHN+HbBQvhc/Jm+djqXNz7bSNW7r5lfF/Pw3Otm8dz5LrSNVpGPuLO+WPF9ogq2TPPi/j58Jx7u5rPQnXmH9i4Yh+qojz41LyHDnUWEm8fge+PoXhYPfEFYIEmdhY4+7/BeHvlacSnJuP+5T34cpgbur3zI8Je6J1WjZS/fsPWtX64mMIv1BeDTG4G81qmoskXvv4Mp7//Eoey6qKeWKMqp/rjYhgOTxKvINBnK8JSXkxxCmNfSSq9j9TISryNI74/IrRiDbWoij6qDu5JIq4E+mBrWArjhi6D3MwctUwrHnF1yl/4beta+F1MET7MMOHw96YPsVkxAZ++2QCnvttZNrY6IxFRQb9gw9lHJXNUIzsz+wV++K/y69blOXJd6RotR52ViNtHfPFj6ENGbqsb/edD5ff2v3AWyuQwM6+F0vKoSotwxdf/opE1QIdBXWFfmQ/1VxoZzOp3gEsra9i4DMHb48bhnVnLsPP0fkxIX4U3pmxH/AvLtQzNPIbCo3l1LViG+p4zMP+t9gLBlQbG66p4qIdsxOaJrZhf+/xiqO64GIMpmrq+CucmBv4QvdIwYl9ZKr2PZGjQYRC6VryhFlXRR9Vh2tQVrzo3YX+bq6w+PGfMx1vtKx5xWTMPDPVobvyeUCfhRHA0LJpZoXbX/+H4H+vLxpY1dkFfN9uyA1mdFoJla8+B9+3+VcdzrFuX58h1pWu0HFmDDhjU1d74HLxQ9J0Pz7O3q/8slNX3xIz5b6G9HIA6DSHL1uJcFRVj1X45WFWhikbAT/fQwbsVojf54/f0pujcQWPSy/srBL/u/x3nLtzAszJzoAKJFwMRciUK4deSwZkUIR82aEh/I+TX/fj93AXceMY2SZajxF+HfsL5uu9g9pCWmiKWN0GXFo+wZUUQuBEzMMBWhoK4s9i7cz9Cwv6BVTsXNOer+LhUhB8OQuipc7ittC+zPbLmwaWFI2BXMM5E/I3Yq1GQD9FYVNlrLIVlO6yNuLN7sXN/CML+sUK7Dma48+sPWLf7PBKsndDFToaHx/2w4bdnaN3NFk/Dy22GyLyGo0FnEH71Km5k1kbnNnzboQopERdwLTYal65loEGJWdUo26E6E9eOBuFM+FVcvZGJ2q5tNBZT7bkybIZicRHGnpB57SiCzoTj6tUbyKztijavaOyqZ/fuxP6QMPxjVWI+FMlBGay55jPaUAbCdh5AXq9+KDrqh8BbHOzcWmuMlIJxayFNkKvGWkMair329PjXvqKxrOqLpeg+ysNfIb9i/+/ncOHGM4ZRU4XogJ9wr4M3WkVvgv/v6WjauQM0YmL+GjVWSS41HIeDQnHq3G0o7V1hX0ct3gdUSLkSgL2HTuKsVk3pwiE1/DCCQk/h3G0l7F3tUUfGmLe61NzqAC7MF36H78PKpSPkt/bCd2toibnVDBlhO3Egrxf6FR2FX+AtcHZuaF1fXmI81TIBq1JwJWAvDp08i2sZDdjGXy4N4QG7EHwmAn/HXkWUfAjmjHCAXF8+uCSc37YRu0MikKQGCtAMXVo8Q3jZ2CZ4GrEL21J7Ym7vdPzkPR3rb3MwV1ugkW02zv16CU+t7+PAtluw6dYRDZ5cQcDeQzh59hoyGmgMpOKohfvEOkl33fqufcXQuaenXgztO9EaBXtMxvmqjg7AT/c6wLtVNDb5/470pp3RocQcrUoxHCdh7coYZ7AaadcOY/vFAjhwYfD1O4z7Vi7oKL+Fvb5bEfqoPtxcm8JC9HwoEuxto+Zm9Fmoe4gK5y8X2VPsPV1capLu1AixP3pj+vrb4MzVsGjeBW3NEwTXsx6zROEb4GoE+btojE03mum3l0KCl9LA5v3ppzhVufkxg6OMvW9S88EbKJEjyjkxm7pN2EPpXCFFLHCjej3n0I7L8SWWxQziMvbSm80H04ZEnklSh3wKfOcVav/FZSrW/ueMLTTM3JLG7Moj1cMdNG/hUUpWFtH9X4ZqrILaUj3VQ9o5/T3yuVNIXNImGtawN62+W2p71J2HxqL6AR1KUpEybku5RVVkjaVwmTEUOEtjO/yxzNQ5jxYeTSZl0X36ZWiJIVBgxF1BP0QUEpd+k3a8x7MdpnLEpR2lxd+d5r1eYo9dFEY5XBHFbhlL7bxWUGR+Jt0OmEkdDdgONRbTVOK4NDq6+LsSiyljrlqIxYUZ+wyN0TeV4yjt6GL67nSRxnw4byEdTVZS0f1faGgzD1oalcfMgTbCuZaaSHltVHdpZS9b8pqxnNb5LKeJbvXJ3juI0hXCcZecucnL1QntEQ3EXhvhtUSGYym2j0qNmhlcBu19szkN3pCoY9QkyqddY2yo20w/2hsSTEsHNqf+P8WRihlbJake7qTp7/nQnUKOkjYNo4a9V9NdlUgfYjWls2AVPdw5nd7zuUOFXBJtGtaQeq++y5h3AmXeOUxzO1tRt1n+tC8khH4a14rsRy4gn+2H6NCa0SXmVhXdXdmLbL1m0PJ1PrR8ohvVt/emoHQlpd/cQe+VmoBL7LCLwnKIK4qlLWPbkdeKSN1ccBkU+tFw+uBQEqmUcbRlZGNymHOWiozJh/IWLe3akb64XExEnO7YxFHi+v7UvCT3OdtHUqO3Ayify6SYwFnkZu1O3j+uo6/nrKDj0ftp2uhFFJbDUVHsFhrbzotW6AZQlxLzdfk+KeCNre9akb2nIxMVy7XIHtJpyq5R5phFrPNVRfm7xpBNt5nktzeEgpcOpOb9f6I4VampVX+cmLVbaqjVOoMTMu/Q4bmdyarbLPLfF0IhP42jVvYjaYHPdjp0aA2NtnOnRVFK0fMhNVV3bxsztwqdhdr5YN5D2HuKeV5GJNPNHe+VW4z5FmH+9UaYZbWpeW+vlGBi2hJ9vSdi1JgJGGCXjPhEDjDrghkbF6Nf+mkcj8mDLDsDOWoVHly+gtxGzVFXZgG37m6wNLWHVw87dJmxEYv7peP08RjkybKRkVPxN6XUSiVUMIeFBSF2/3ZEPcvAmf0HccVsoMYqqCXVU93+FRvjXDHSyQIy2+nYFbEH7ztaMuZRalEdj+G2ppDb9S2zqLLXWD6GrIELXuulsR1+UGbqjMKzjDPYf/AKzAaWGAL5RtyHzfGGhwVkjVwxpCvPdjj5C2yN7Yx5H/XUfb3UiDu4K2xk5mjn/REGJfnB75wVOg7pAXsDtkONxXQyvtgai87zPiqxmDLmWgYnEheNQVcQe4XG6Dv5i62I7TwPH/U015gPo54h48x+HLxihoHTB6OZgmPkQLcWBHM1NxNvY1IbnSfOx7yPvsaObbNhExqIc9HCcW0tW+vmavFr2iPqj70Owms1Zkh9sdTA2kdmXWZg4+J+SD99HDF5MmRn5Ag/O2BiipZ9vTFx1BhMGGCH5PhEKJixzcPtXzciznUknCxksJ2+CxF73oejKbsPTqymtLW6qtv4dWMcXEc6wUJmi+m7IrDnfUfGvJ+irvMQ9GxlDlvPiXhn1Ci8P8Yd+eZumD71dbw+ZUSZuRUwQe3OEzF/3kf4esc2zLYJReAFBRq5DkHXEl1rqR12cFcbyMzbwfujQUjy89Mx/nIPtmP1KQeMH24LU7kd+no5an5yNzIf5ch0xhZF1gAur/WCg1lrDP5gHpZvXAD7wz8hzG4wutrIYN7OGx8NSoKf3xnxt2JKzNfl+8RSfGzBtXL23uPLRFm5hp49pNOUX6MK5pgFV1nnqykAE5i27AvviaMwZsIA2CXHI5ErNbXqi5OKXbuWwjP4aV1nDOnZCua2npj4ziiMen8M3PPN4TZ9Kl5/fQpGOKchQVNozPPhjzrae9uYuVXwLNTOB+seomDvKeZ5qaoN1yFdyyzG2jCvFxSDfhjd1jTkMDVVQ8URoM5Hwkk/bIpqjKHDXWEDAkGOjqPfQNOogziVmIKI8DR0nTASrUzVyE84Cb9NUWg8dDhcbfQ4g/Tw9M9w3DHvhj49aolaBUvhsvi2RxvQUxVjHuIWVfYadSm1HZoAegyBfCPuaJR++aXAdtgnGX7j3DFg0Xnd15lG3CLkaXSZBm2HGotpHyT7jYP7gEU4b9BiKhYXEaNjM43Rt0+yH8a5D8Ci82ki5kNrRg60hmXNNY2VN902AGDW2gEtTAEuhzVuHd1c6WAg9oauFc27GOX7SJ2fgJN+mxDVeCiGiy1MC7mpKdQqDipmbK2Qxbd82hCe8mqhtA/SV1OlcFnIyHqCdM1GgrxRK9jQU9F5G2Nu1cGsNRxamJb4y8qtq0w7bFGejvFXFXcf8Sqt8Ur/q8L5gM7YejHRXKeRhrINpEV5z8Q/zFpivtbeJ6JjC65NZu89PTLRslyjomdwaY2qmGN2LWadr4JCg6laBY6MiRPHrl2VyBmsZfaFzLQkHwAgh0xGIEGhlZ8PpFOnxsytgmehdj5Y9xCRPcU+L0uMwozyEL2+AtTMhw4S3mgBQBHhi2/ONsVbEzrDssz8WAQ0dsKQ1/vC8q9bkE05gMNznSFXRMD3m7No+tYEdLbUsiwqMhF94aqOvbYUUuuOqk4/iaXLT8Hu02XwtrMQtwqWoGt7zMaNHZsRmniFMQ9xi6rYGnV/h2CcqbPMiPtNDnoM0zLiitgOG4fwbIcCI24K0tQDMKqvpbhxUgsdi2njECMspnK0d2XFRcTo+Fjb6NsYIQfC2ObD8xcYOdC1igrmej7MYBsAKLgZjdxBYzHQjTFuiZmTHSkDsdeBca2evJfB3EcKRPh+g7NN38KEzpYiRk1i3hyYsQ1T6Fo+s29gx+ZQpKrZfeivqRJquaCHWwp2L9uAyCwFsm/swObQRD3zZq1TDwU3EZ07CGP7Wmj+v2SiAuNvShrUA0ZBe2ry9q5wzDiFgPOZUANQKJVQKIqNywcIRGroHDPMIAEyExNwSiXUeTnI5bQvExpIU9LUGDCqLyxRgITLp3E1lXe46ZivNfsEEBlbcG0ke+/pyERFci12BuuUGit37P0e0Ypxvqaqwf5+S31xKoVnqC2p3cQr4mcwcyg9lJ4PmlITt8gK51bBs1ArH8x7iKoNugr2VKrIntZ0VrZWYyzCBQm4fPoq+KXHhP9+y78Ol0Mx+6ZRewtXmhUYTXfDf6Y37OrRq1+dp4TkEJrr3oKch86gJWtmk6d9H/r8yH1K3jeeWjRuS+4e3ainV38aOWUl/f44lULmulML56E0Y8kamu1pT30+P0L34/xpTKtBtD5W+/MHz+jhxc3k3a4W1e/mTV999z2tXDKPvMeNp8+2RVJm6duQqkQ6tmAItWtQlxq2G0pf/ZbMey9cSXHBn1I/+3pkY+tBEzdepTwunTmPh3kxtH1qd2rrPIDe/eJLesujHY1cEkKxCaw1PqTSd8247BjaP92ZzB0n09aoNOKISJV4jBYMaUcN6jakdkO/ot+Sy2eVf+4zenvFrfL2mTfJf4IDWXt8Sifux5P/2x705iIf2rphMc374Q/d1x/mE5fyGy0e2Z/GfvwNrfr6f7Ty+D/EUQ79tW8qOVm40eygGIqN8NHkaNE5elT2gRiO0vzfJo83F5HP1g20eN4P9Ee2/rkSEVEhOy73nwpjr0zzp7c93qRFPltpw+J59MMf2USkosRjC2hIuwZUt2E7GvrVb5SsFMlB2VuRjLlmirXJpj/Xe9OIcbNp2do1tGTJFgrP5Jjj/pMpzFUZXJrB2Ou7lgzkXXwfnaUbh+eSewtnGjpjCa2Z7Un2fT6nI2XB4CgnZh9Na29BrrMCKfpuOP38hh3Ve/UrOp9YJFhjMkdEyjgK/rQf2dezIVuPibTxaq6ePpQiNaWLMi6YPu1nT/VsbMlj4ka6msdReohw3vtPB9BMFwvqMH0f3XoYTQdmdCRL1w/oYPQDur7Dm9pZdqK5Iffpnz/Xk/eIcTR72Vpas2QJbQnPJI44yrzpTxMcrMnj0xP0MJ+jlN8W08j+Y+njb1bR1/9bScf/4c+skGK2T6XubZ1pwLtf0JdveVC7kUso5H6+/nxQDt0L/Zr6N6hDPT8PoPCEfJ2x7/8TTf7jW5GVxycUEptHyuurqK9DJ3pj2UE6vXc6OZs70uStUZTGERGXQr8tHkn9x35M36z6mv638jj9wxFRUSjNsK9HzSfsonStkTnBPsnkrVvftdkGzj099ZKQLLKHSpuK1eh5SixijSk8X3NzYmjftPZk4TqLAqPvUvjPb5BdvVfpq/OJ4nHSRlC7ecSlM87g/acpYKYLWXSYTvtuPaToAzOoo6UrfXAwmh5c30He7Syp09wQuv+MfT4I9rYxc6vAWajdlDn/Iw+pULCniHluJSsz6ab/BHKw9qBPTzwkUl6nVX0dqNMby+lEYrHweo6oKHQG2ddrThN2aVcem//A16CrELvnB4S1m4gBdZ8i91kesh4E4lDKLGyY145/sYSEhMR/F0UUflyTiGmL30B9/msSEi8QRdSPWJM4DYvf0F95NfPtlYpQfBE+Kw/h5sMUqOvbomUTaxRmNYbnoFb8KyUkJCT+u3CJCAt6gK5Tx0oPHBLVCpcYhqAHXTF1rOHK+w/8pkONzKv7sHH774hOU8GmdS+88cEMDG9rxb9QQkJCQkJC4l/kP/DQISEhISEhIfEy8PK/vSIhISEhISHxUvDyPHRUmRWxslbCyrbTpir6qCL0mDefxzD47MFJ+P5wEEbLELWtm6cf8V/9/0txMm7/GVZmPo56yPgCr3+D5zCKVgcVrr//AM+zX58fw/bUf3d+z4saufd+w8aVu3GrBtZUdcS2qsd4eR46qsiKWFkrYWXbaVMVfVQVes2bPMOg0ahT8NdvW7HW7yKMkyHyrJvf+vEvqOG8QBOoeUPY1QnDV0NHYOkVa7RqXqcGbNbnMIpWBxWuv/8Ild2vVYRBe+q/PL/nQp2BxKgg/LLhLB7VwJKvlthW8RhV1E01UEVWxMpaCSvbTpuq6KOq0Gfe1DEMVgRZM3gM9YDRMkS+dfPi9/wrajQv1gRqBhtHF7S2aYgOXTugkYWxQX2RPIdRtDqoaP39R6j0fq0SDNtT/935PSeyxnDp6wbbGnqnrI7YVvUYNdMyyzJ+Kng2SH3XGjCZqsSshAaMiKLtROySLHuheB9GmDcZhkWWwVaddg2Ht19EgQOHMF8/HL5vBZeOctza64utoY9Q380VTS1I1LxZVGoY7OIMjXjTkA2RQ1p4AHYFn0HE37G4GiXHkDkj4CAXMUUCTOtmx9oPcHiHrk2zdiKvfa00RAXtxGVVS+Sf/gWbf09Hky7OGqMl0xDKtmYCgDolCns2+uDQ4+Z41VmB8B0++OVULtr1ckI97UOG0W+tJ5ewtjImUGa9ao2ljepvhPichNm4DzHcQbjjmXkx1D+rhvTUnrCG9dhjGbZKE33zKXqMPwMCcENmjQf7fsG+yALYuraF4uYebPQ5hMfNX4WzIhw7fH7Bqdx26OVUDzLWGBWpP331UzatPxEQcAMy6wfY98s+RBbYwrXdKyJ2XnZ9CS2faoYdujEANZ5E7sQP63bjfII1nLrYQfbwOPw2/IZnrbuhUdJxg/10s3mgs1+FY8tFLMUaFKlRCNa77zrA7M6vInN0Ra07geX2VEa+rZOMOE8UqeJ5YeSc9KwHLEOtEXlntrM2AT2NwK5tqej58Vg46WxDtrWVtT59Vm7hHhMxZVcytvrGFtaK4fpinYf8O4Je+N8WVhMQGj/5RkZ91xq2PbKthIaNiOx27PGY9kKVWB9GmDeNNdgmZNKdw3Ops1U3muW/j0JCfqJxrexp5AIf2n7oEK0ZbUfui6JISSLmzdRUHcOgYRsiRxmhH9HwDw5RkkpJcVtGUmOHOXS2iAzbELWtmwyb5rHIbbz2S+jMjQCa2bEOeXh/T757d9GXfZpSnx/uk0rMEMqwZmrPPWFdP2o57TgVEpEyciF1cptP4dqaYbF+K2kCFdar1lh8CkNoqm0bmntOeJFYXvT2z6whhWjtsWtYxCgqYp8Unw9HqVF+9E7rxtR72lJa67OCJna0oRaTAyldmUDr+rWkaccLiUhJkQs7kdv8cCpmjlFcgfrTUz9l00qlKL93qHXj3jRt6VryWTGROtq0oMmB6ZQvsNwmEseqL4blM+EJ3w6tbRzOoKDJduSx5Kbmm4MzAmnFDxFUaEw/3+zXNYIy2iRyLEtx6XqFtSvcd0spSsmeYz7PjCzId0G6EedJPmXeFskLM+cZ4uuhSuad2U5zXnGJ66l/85L4ll/NtLYy1xeeJGrlZu6xYtaaGXvJmNjqGZtVKwbrS895aCxiP2P9qwiNn+JGRsG1Bk2mELESGmNEZLRTsMYrYNsLTUX6KDZs3jTaYPu0LpyH9EQrc1t4TnwHo0a9jzHu+TB3m46pr7+OKSOckZaQWPI5DoZ58486WoZBI2yI3ANsX30KDuOHw9ZUDru+XtAIc42wIWojsGkuROtTO3ntbWHZZgh62FugzYiPMHviRLw31AGpCf+gSMwQquRbM3WfyeVy0/K3mGrJBW99GWMeFc5d3ASq5NdrhX5EKEU8L/r6Z9aQQ6xI7T0Tr2GGUZRtoC0U7s+y+cjQpPNgdG5eF27vLMQXHy3GNp93YX4iGBeL5JCblv9qspZckxWm4bIwpgL1J14/ZW/Xy5qg8+DOaF7XDe8s/AIfLd4Gn3fNcSL4ItQCy20O1AIrqznT8vm0Hs8OrWMcfgWj5r4DZcA2hBVxeHTsIZq/4QELY/pZMkHXCMpok6NmWIpLEdQua981g6KQPUcrnhlZkG/LRkacJ+dg1ZGdl2JWzhUK8fVUNu/MdnrOK6YJ2YG9vs3X0ZZp5S5i7rHWD1hrZuwlY2IrOraKWSuG6suo89AAwrt4DUBo/FSLWhEF1xo0mfIosxJW0IhY2k7Fskt2ZdsL+c8wZX0YNm8ab7AFL1YymJbrECGXyTTSqbJ/KUHbvFlmGDTChqiKw/14lZZ9sVSYa4QNkQ/Ppslur2s/rGVqClKrxQ2hlnxrZlp5YyMQ7Zf/QUUjTaCW/HpNE2TCIMWZqZXqn1lD2Ukitacwqob1G2jrCPcna70l+TRzckIrE074weYSmIZLj/QK1h+7flhoLjODk1MrmHAqtuVWYGVNY1s+Sy2jTOMwYNZ1BqbYhmBTcBiOpTtidCtT4/vRNoIy2zAsxdoYte9E5lg6n5KumPk26jxh54WZ8x7N9KxHbP7s/g2307pEG6a1NVt8fTr26FIrN9tym53JWrPIXjImtsyxxWpFf30ZfR7qoUY+dAiMn2Elv6lgPAUIrjVoMgXbSmiEEZHZjmmXjGDaC1PVIn0YYd403mBbMmfWOPrgmTc1zY2wIcrbw9UxA6cCzkMjQ1RCqVCgWMQUKbRT6lo3y6ct3p61MlFDaCHfmqldCzJYWlmgMCsTBeCQdj8e2UUKnT/9E+3XsnIm0EJ+vYYpALWY+Zig5ltJi+/iwKGYivVfArOGsjuJ1F5dkRpmG0XFbJWC/ak1HwAAFaGoQNOhMj4BTz0HwdPKElYWhcjKLAC4NNyPz0aRQsEeI9yuwvXHmL4AKiqCZlpKxCc8heegrrjFstwmHxHUF9PyWVgElT4brqkDJs/ogcuLv0FOj2F4RcwWKtJPaU7YbZJxhG8p5mHMvmPNsaR12XzE8m3MecJfE0Tr6rHQulzeQnT+rP7LEW/HhGlCztazPtbobMttVjvWmsX3kuHYssYWqxX99SV+HqqRGX0BV4WHmIAa+EFSNfIurcTM9TdRnJ+GJyYeGD/VC3X+PohNfkdwz7wbBvVxRP1aYtcOxbB+7ZEZshrzF3yHX683xLtfTkHbOppHNXXuHRza4oeg2zK4erVF/uk92Boaj7peY+BVfBTfrz+Ge7m1IU+7iKjc9hg4qD3qy/S06z0aH07owRtvKjr17IG2ycFY/sVCrDueAc9P5mNYnfvifUzqhSe7V2FzxCMkRN6B9cRlmNPFpuxp06S2C7q3TUbw8i+wcN1xZHh+gvkj2gKxu3lztodD4QXsDbwBrv2r6IjL2OsfiFtqF3h1UOD87i04dEcOj0H94NK4GDEhgTh3/zH+Cvsb9nO/wbuORbh9cBP8jtyDebdBeH3USDg/2Y1VmyPwKCESd6wnYtmcLrApnZisHty7NsHtTYvwbcBVPMpIQtz9HFi16Y7hY4ejfWYIVs9fgO9+vY6G736JKc51StaUi9jft8F3+ynEW7SDq+MryD23A5sDo5Bv1wtenWzRyLmnoP3rJqex1TcQt03c0McxH6d3b0VofB14jpqBSb2ysHvVZkQ8SkDkHWtMXDYHnWRhWDlzPW4W5yPtiQk8xk+Fp32J0hyAWQM1YtZ/hbUn7oJrVhep15Mg79ANfdqUOASsOqC38xNBv11sTGBKj3DSxx+nCpvDNuMs9gZpz703I26dIAvj12sftMzYh1ljf0bBiEnoWfopy6JH+HO/PzYfDMPdx0mIu34OJ48HYcvy1Xj46lK8N36Q0f2XLpdZQ8Md4d7bmVF79VDHpTuvhr9A79zj2OIXhNsyV3i1zcfpPVsRGl8XvUd/gAk9shGyej4WfPcrrjd8F19OaQ/omQ8oG3/u9MOZZCUKk27g90sc3lr2KXo2sEADdQzWf7UWJ+5yaFY3FdeT5OjQdyom9srRHWNqL/TuZnz9idbPwFfhYKP5yZ2y/8ROvzNIVhYi6cbvuMS9hWWf9kJzVSx2f78ex+7lorY8DRejctGupzmC5/vo1FdvJxlid3+P9cfuIbe2HGkXo5DToiXyLuxHcFQ+7Hp5oZOtNe83HiawbtMQSVflGP/pQDSRASaWCsP9NC3W2a+vuVoL2uS26wnz4PnwuVmM/LQnMPEYj6Ge9pph1Tm4c8jf4L7T7FvhHNVZ0Ti4yQ9H7pmj2yAvNI1Zq5vv9zoiN8TweYJ7h+HPysuomZjQg5dz75a4sWom1rPWA8Cqg3D+xuSd1W5KexXuBG2C3+F7MO/SD8OcSh61TGrDpXtbJAcvxxcL1+F4hic+mT8cbdxZ+74Nko/4wzfwNkzc+sAx/zR2bw1FfJ3eGDNrPDzSdO8Twx3d0bN9puG9ZFRsxcb2xKDBtkjdV7H6GubmyT4P6yRh36yx+LlgBLx76n6ol4/0NegSEhL/DtxDrO0/DPFLY+A7sFIfbnkhcA/Xov+weCyN8UUNmpaExH+CGvn2ioSExP8HOKjVanBiH+L4t+DUUKvFP1siISFReaSHDgkJiX8BBR5HXESWnTtMos8hNo//+r+E4jEiLmbBzt0E0ediUVOmJSHxX0F6e0VCQkJCQkKiWpB+0yEhISEhISFRLUgPHRISEhISEhLVgvTQISEhISEhIVEtSA8dEhISEhISEtWC9NAhISEhISEhUS1IDx0SEhISEhIS1YL00CEhISEhISFRLUgPHRISEhISEhLVwv8Bv9HDdaGWp/sAAAAASUVORK5CYII=;" parent="1" vertex="1">
          <mxGeometry x="580" y="-110" width="541" height="226" as="geometry" />
        </mxCell>
        <mxCell id="fucy-kLUyC3A65yk6uyo-2" value="Coche" style="whiteSpace=wrap;html=1;align=center;fillColor=#f0a30a;strokeColor=#BD7000;fontColor=#000000;" parent="1" vertex="1">
          <mxGeometry x="610" y="170" width="100" height="40" as="geometry" />
        </mxCell>
        <mxCell id="fucy-kLUyC3A65yk6uyo-3" value="Cliente" style="whiteSpace=wrap;html=1;align=center;fillColor=#f0a30a;strokeColor=#BD7000;fontColor=#000000;" parent="1" vertex="1">
          <mxGeometry x="920" y="170" width="100" height="40" as="geometry" />
        </mxCell>
        <mxCell id="fucy-kLUyC3A65yk6uyo-4" value="relacion" style="shape=rhombus;perimeter=rhombusPerimeter;whiteSpace=wrap;html=1;align=center;fillColor=#76608a;fontColor=#ffffff;strokeColor=#432D57;" parent="1" vertex="1">
          <mxGeometry x="780" y="170" width="90" height="40" as="geometry" />
        </mxCell>
        <mxCell id="fucy-kLUyC3A65yk6uyo-5" value="" style="endArrow=none;html=1;rounded=0;exitX=0;exitY=0.5;exitDx=0;exitDy=0;" parent="1" source="fucy-kLUyC3A65yk6uyo-4" edge="1">
          <mxGeometry relative="1" as="geometry">
            <mxPoint x="757" y="160" as="sourcePoint" />
            <mxPoint x="710" y="190" as="targetPoint" />
          </mxGeometry>
        </mxCell>
        <mxCell id="fucy-kLUyC3A65yk6uyo-6" value="(1,N)" style="resizable=0;html=1;whiteSpace=wrap;align=right;verticalAlign=bottom;" parent="fucy-kLUyC3A65yk6uyo-5" connectable="0" vertex="1">
          <mxGeometry x="1" relative="1" as="geometry">
            <mxPoint x="34" as="offset" />
          </mxGeometry>
        </mxCell>
        <mxCell id="fucy-kLUyC3A65yk6uyo-7" value="" style="endArrow=none;html=1;rounded=0;exitX=1;exitY=0.5;exitDx=0;exitDy=0;" parent="1" source="fucy-kLUyC3A65yk6uyo-4" edge="1">
          <mxGeometry relative="1" as="geometry">
            <mxPoint x="757" y="160" as="sourcePoint" />
            <mxPoint x="930" y="190" as="targetPoint" />
          </mxGeometry>
        </mxCell>
        <mxCell id="fucy-kLUyC3A65yk6uyo-8" value="(1,1)" style="resizable=0;html=1;whiteSpace=wrap;align=right;verticalAlign=bottom;" parent="fucy-kLUyC3A65yk6uyo-7" connectable="0" vertex="1">
          <mxGeometry x="1" relative="1" as="geometry">
            <mxPoint as="offset" />
          </mxGeometry>
        </mxCell>
        <mxCell id="fucy-kLUyC3A65yk6uyo-9" value="Concesionario" style="whiteSpace=wrap;html=1;align=center;fillColor=#f0a30a;strokeColor=#BD7000;fontColor=#000000;" parent="1" vertex="1">
          <mxGeometry x="610" y="350" width="100" height="40" as="geometry" />
        </mxCell>
        <mxCell id="fucy-kLUyC3A65yk6uyo-10" value="Revision" style="shape=rhombus;perimeter=rhombusPerimeter;whiteSpace=wrap;html=1;align=center;fillColor=#76608a;fontColor=#ffffff;strokeColor=#432D57;" parent="1" vertex="1">
          <mxGeometry x="620" y="260" width="90" height="40" as="geometry" />
        </mxCell>
        <mxCell id="fucy-kLUyC3A65yk6uyo-11" value="" style="endArrow=none;html=1;rounded=0;exitX=0;exitY=0.5;exitDx=0;exitDy=0;entryX=0;entryY=1;entryDx=0;entryDy=0;" parent="1" source="fucy-kLUyC3A65yk6uyo-10" target="fucy-kLUyC3A65yk6uyo-2" edge="1">
          <mxGeometry relative="1" as="geometry">
            <mxPoint x="597" y="250" as="sourcePoint" />
            <mxPoint x="550" y="280" as="targetPoint" />
          </mxGeometry>
        </mxCell>
        <mxCell id="fucy-kLUyC3A65yk6uyo-12" value="(1,N)" style="resizable=0;html=1;whiteSpace=wrap;align=right;verticalAlign=bottom;" parent="fucy-kLUyC3A65yk6uyo-11" connectable="0" vertex="1">
          <mxGeometry x="1" relative="1" as="geometry">
            <mxPoint x="34" as="offset" />
          </mxGeometry>
        </mxCell>
        <mxCell id="fucy-kLUyC3A65yk6uyo-13" value="" style="endArrow=none;html=1;rounded=0;exitX=1;exitY=0.5;exitDx=0;exitDy=0;entryX=1;entryY=0;entryDx=0;entryDy=0;" parent="1" source="fucy-kLUyC3A65yk6uyo-10" target="fucy-kLUyC3A65yk6uyo-9" edge="1">
          <mxGeometry relative="1" as="geometry">
            <mxPoint x="597" y="250" as="sourcePoint" />
            <mxPoint x="770" y="280" as="targetPoint" />
          </mxGeometry>
        </mxCell>
        <mxCell id="fucy-kLUyC3A65yk6uyo-14" value="(1,1)" style="resizable=0;html=1;whiteSpace=wrap;align=right;verticalAlign=bottom;" parent="fucy-kLUyC3A65yk6uyo-13" connectable="0" vertex="1">
          <mxGeometry x="1" relative="1" as="geometry">
            <mxPoint as="offset" />
          </mxGeometry>
        </mxCell>
        <mxCell id="fucy-kLUyC3A65yk6uyo-15" value="" style="endArrow=none;html=1;rounded=0;exitX=1;exitY=0.5;exitDx=0;exitDy=0;" parent="1" source="fucy-kLUyC3A65yk6uyo-10" target="fucy-kLUyC3A65yk6uyo-16" edge="1">
          <mxGeometry relative="1" as="geometry">
            <mxPoint x="750" y="275" as="sourcePoint" />
            <mxPoint x="810" y="275" as="targetPoint" />
          </mxGeometry>
        </mxCell>
        <mxCell id="fucy-kLUyC3A65yk6uyo-16" value="Incremento" style="ellipse;whiteSpace=wrap;html=1;align=center;" parent="1" vertex="1">
          <mxGeometry x="770" y="265" width="85" height="30" as="geometry" />
        </mxCell>
      </root>
    </mxGraphModel>
  </diagram>
</mxfile>
